<svg xmlns="http://www.w3.org/2000/svg" xmlns:ooo="http://xml.openoffice.org/svg/export" xmlns:svg="http://www.w3.org/2000/svg" id="svg4713" width="354.911" height="225" fill-rule="evenodd" stroke-linejoin="round" stroke-width="28.222" clip-path="url(#presentation_clip_path)" preserveAspectRatio="xMidYMid" version="1.2" viewBox="0 0 10016.381 6350" xml:space="preserve"><metadata id="metadata5432"/><defs id="defs4715" class="ClipPathGroup"><clipPath id="presentation_clip_path" clipPathUnits="userSpaceOnUse"><rect id="rect4718" width="21590" height="27940" x="0" y="0"/></clipPath></defs><defs id="defs4724" class="EmbeddedBulletChars"><g id="bullet-char-template(57356)" transform="scale(4.8828125e-4,-4.8828125e-4)"><path id="path4727" d="M 580,1141 1163,571 580,0 -4,571 580,1141 z"/></g><g id="bullet-char-template(57354)" transform="scale(4.8828125e-4,-4.8828125e-4)"><path id="path4730" d="m 8,1128 1129,0 L 1137,0 8,0 8,1128 z"/></g><g id="bullet-char-template(10146)" transform="scale(4.8828125e-4,-4.8828125e-4)"><path id="path4733" d="M 174,0 602,739 174,1481 1456,739 174,0 z m 1184,739 -1049,607 350,-607 699,0 z"/></g><g id="bullet-char-template(10132)" transform="scale(4.8828125e-4,-4.8828125e-4)"><path id="path4736" d="M 2015,739 1276,0 717,0 l 543,543 -1086,0 0,393 1086,0 -543,545 557,0 741,-742 z"/></g><g id="bullet-char-template(10007)" transform="scale(4.8828125e-4,-4.8828125e-4)"><path id="path4739" d="m 0,-2 c -7,16 -16,29 -25,39 l 381,530 c -94,256 -141,385 -141,387 0,25 13,38 40,38 9,0 21,-2 34,-5 21,4 42,12 65,25 l 27,-13 111,-251 280,301 64,-25 24,25 c 21,-10 41,-24 62,-43 C 886,937 835,863 770,784 769,783 710,716 594,584 L 774,223 c 0,-27 -21,-55 -63,-84 l 16,-20 C 717,90 699,76 672,76 641,76 570,178 457,381 L 164,-76 c -22,-34 -53,-51 -92,-51 -42,0 -63,17 -64,51 -7,9 -10,24 -10,44 0,9 1,19 2,30 z"/></g><g id="bullet-char-template(10004)" transform="scale(4.8828125e-4,-4.8828125e-4)"><path id="path4742" d="M 285,-33 C 182,-33 111,30 74,156 52,228 41,333 41,471 c 0,78 14,145 41,201 34,71 87,106 158,106 53,0 88,-31 106,-94 l 23,-176 c 8,-64 28,-97 59,-98 l 735,706 c 11,11 33,17 66,17 42,0 63,-15 63,-46 l 0,-122 c 0,-36 -10,-64 -30,-84 L 442,47 C 390,-6 338,-33 285,-33 z"/></g><g id="bullet-char-template(9679)" transform="scale(4.8828125e-4,-4.8828125e-4)"><path id="path4745" d="M 813,0 C 632,0 489,54 383,161 276,268 223,411 223,592 c 0,181 53,324 160,431 106,107 249,161 430,161 179,0 323,-54 432,-161 108,-107 162,-251 162,-431 0,-180 -54,-324 -162,-431 C 1136,54 992,0 813,0 z"/></g><g id="bullet-char-template(8226)" transform="scale(4.8828125e-4,-4.8828125e-4)"><path id="path4748" d="m 346,457 c -73,0 -137,26 -191,78 -54,51 -81,114 -81,188 0,73 27,136 81,188 54,52 118,78 191,78 73,0 134,-26 185,-79 51,-51 77,-114 77,-187 0,-75 -25,-137 -76,-188 -50,-52 -112,-78 -186,-78 z"/></g><g id="bullet-char-template(8211)" transform="scale(4.8828125e-4,-4.8828125e-4)"><path id="path4751" d="m -4,459 1139,0 0,147 -1139,0 0,-147 z"/></g></defs><g id="g4760" class="SlideGroup" transform="translate(-1108.6191,-1175)"><g id="g4762"><g id="id1" class="Slide" clip-path="url(#presentation_clip_path)"><g id="g4765" class="Page"><g id="g4767" class="com.sun.star.drawing.TextShape"><g id="id3"><text id="text4770" class="TextShape"><tspan id="tspan4772" class="TextParagraph" font-family="Arial, sans-serif" font-size="388" font-style="italic" font-weight="400"><tspan id="tspan4774" x="1091" y="3969" class="TextPosition"><tspan id="tspan4776" fill="#000" stroke="none">fahr_to_celsius</tspan></tspan></tspan></text></g></g><g id="g4778" class="com.sun.star.drawing.LineShape"><g id="id4"><path id="path4781" fill="none" stroke="#000" d="m 7100,5700 1470,0"/><path id="path4783" fill="#000" stroke="none" d="m 9000,5700 -450,-150 0,300 450,-150 z"/></g></g><g id="g4785" class="com.sun.star.drawing.TextShape"><g id="id5"><path id="path4788" fill="silver" stroke="none" d="m 6023,6100 -878,0 0,-683 1755,0 0,683 -877,0 z"/><text id="text4790" class="TextShape"><tspan id="tspan4792" class="TextParagraph" font-family="Arial, sans-serif" font-size="388" font-weight="400"><tspan id="tspan4794" x="5395" y="5893" class="TextPosition"><tspan id="tspan4796" fill="#000" stroke="none">original</tspan></tspan></tspan></text></g></g><g id="g4798" class="com.sun.star.drawing.TextShape"><g id="id6"><path id="path4801" fill="none" stroke="#000" stroke-width="50" d="m 9692,6100 -492,0 0,-733 984,0 0,733 -492,0 z"/><text id="text4803" class="TextShape"><tspan id="tspan4805" class="TextParagraph" font-family="Arial, sans-serif" font-size="388" font-weight="400"><tspan id="tspan4807" x="9475" y="5868" class="TextPosition"><tspan id="tspan4809" fill="#000" stroke="none">32</tspan></tspan></tspan></text></g></g><g id="g4811" class="com.sun.star.drawing.LineShape"><g id="id7"><path id="path4814" fill="none" stroke="#000" stroke-width="50" d="m 7800,7500 0,-51"/><path id="path4816" fill="none" stroke="#000" stroke-width="50" d="m 7800,7398 0,-51"/><path id="path4818" fill="none" stroke="#000" stroke-width="50" d="m 7800,7296 0,-51"/><path id="path4820" fill="none" stroke="#000" stroke-width="50" d="m 7800,7194 0,-51"/><path id="path4822" fill="none" stroke="#000" stroke-width="50" d="m 7800,7092 0,-51"/><path id="path4824" fill="none" stroke="#000" stroke-width="50" d="m 7800,6990 0,-51"/><path id="path4826" fill="none" stroke="#000" stroke-width="50" d="m 7800,6888 0,-51"/><path id="path4828" fill="none" stroke="#000" stroke-width="50" d="m 7800,6786 0,-51"/><path id="path4830" fill="none" stroke="#000" stroke-width="50" d="m 7800,6684 0,-51"/><path id="path4832" fill="none" stroke="#000" stroke-width="50" d="m 7800,6582 0,-51"/><path id="path4834" fill="none" stroke="#000" stroke-width="50" d="m 7800,6480 0,-51"/><path id="path4836" fill="none" stroke="#000" stroke-width="50" d="m 7800,6378 0,-51"/><path id="path4838" fill="none" stroke="#000" stroke-width="50" d="m 7800,6276 0,-51"/><path id="path4840" fill="none" stroke="#000" stroke-width="50" d="m 7800,6174 0,-51"/><path id="path4842" fill="none" stroke="#000" stroke-width="50" d="m 7800,6072 0,-51"/><path id="path4844" fill="none" stroke="#000" stroke-width="50" d="m 7800,5970 0,-51"/><path id="path4846" fill="none" stroke="#000" stroke-width="50" d="m 7800,5868 0,-51"/><path id="path4848" fill="none" stroke="#000" stroke-width="50" d="m 7800,5766 0,-51"/><path id="path4850" fill="none" stroke="#000" stroke-width="50" d="m 7800,5664 0,-51"/><path id="path4852" fill="none" stroke="#000" stroke-width="50" d="m 7800,5562 0,-51"/><path id="path4854" fill="none" stroke="#000" stroke-width="50" d="m 7800,5460 0,-51"/><path id="path4856" fill="none" stroke="#000" stroke-width="50" d="m 7800,5358 0,-51"/><path id="path4858" fill="none" stroke="#000" stroke-width="50" d="m 7800,5256 0,-51"/><path id="path4860" fill="none" stroke="#000" stroke-width="50" d="m 7800,5154 0,-51"/><path id="path4862" fill="none" stroke="#000" stroke-width="50" d="m 7800,5052 0,-51"/><path id="path4864" fill="none" stroke="#000" stroke-width="50" d="m 7800,4950 0,-51"/><path id="path4866" fill="none" stroke="#000" stroke-width="50" d="m 7800,4848 0,-51"/><path id="path4868" fill="none" stroke="#000" stroke-width="50" d="m 7800,4746 0,-51"/><path id="path4870" fill="none" stroke="#000" stroke-width="50" d="m 7800,4644 0,-51"/><path id="path4872" fill="none" stroke="#000" stroke-width="50" d="m 7800,4542 0,-51"/><path id="path4874" fill="none" stroke="#000" stroke-width="50" d="m 7800,4440 0,-51"/><path id="path4876" fill="none" stroke="#000" stroke-width="50" d="m 7800,4338 0,-51"/><path id="path4878" fill="none" stroke="#000" stroke-width="50" d="m 7800,4236 0,-51"/><path id="path4880" fill="none" stroke="#000" stroke-width="50" d="m 7800,4134 0,-51"/><path id="path4882" fill="none" stroke="#000" stroke-width="50" d="m 7800,4032 0,-51"/><path id="path4884" fill="none" stroke="#000" stroke-width="50" d="m 7800,3930 0,-51"/><path id="path4886" fill="none" stroke="#000" stroke-width="50" d="m 7800,3828 0,-51"/><path id="path4888" fill="none" stroke="#000" stroke-width="50" d="m 7800,3726 0,-51"/><path id="path4890" fill="none" stroke="#000" stroke-width="50" d="m 7800,3624 0,-51"/><path id="path4892" fill="none" stroke="#000" stroke-width="50" d="m 7800,3522 0,-51"/><path id="path4894" fill="none" stroke="#000" stroke-width="50" d="m 7800,3420 0,-51"/><path id="path4896" fill="none" stroke="#000" stroke-width="50" d="m 7800,3318 0,-51"/><path id="path4898" fill="none" stroke="#000" stroke-width="50" d="m 7800,3216 0,-51"/><path id="path4900" fill="none" stroke="#000" stroke-width="50" d="m 7800,3114 0,-51"/><path id="path4902" fill="none" stroke="#000" stroke-width="50" d="m 7800,3012 0,-51"/><path id="path4904" fill="none" stroke="#000" stroke-width="50" d="m 7800,2910 0,-51"/><path id="path4906" fill="none" stroke="#000" stroke-width="50" d="m 7800,2808 0,-51"/><path id="path4908" fill="none" stroke="#000" stroke-width="50" d="m 7800,2706 0,-51"/><path id="path4910" fill="none" stroke="#000" stroke-width="50" d="m 7800,2604 0,-51"/><path id="path4912" fill="none" stroke="#000" stroke-width="50" d="m 7800,2502 0,-51"/><path id="path4914" fill="none" stroke="#000" stroke-width="50" d="m 7800,2400 0,-51"/><path id="path4916" fill="none" stroke="#000" stroke-width="50" d="m 7800,2298 0,-51"/><path id="path4918" fill="none" stroke="#000" stroke-width="50" d="m 7800,2196 0,-51"/><path id="path4920" fill="none" stroke="#000" stroke-width="50" d="m 7800,2094 0,-51"/><path id="path4922" fill="none" stroke="#000" stroke-width="50" d="m 7800,1992 0,-51"/><path id="path4924" fill="none" stroke="#000" stroke-width="50" d="m 7800,1890 0,-51"/><path id="path4926" fill="none" stroke="#000" stroke-width="50" d="m 7800,1788 0,-51"/></g></g><g id="g4928" class="com.sun.star.drawing.LineShape"><g id="id8"><path id="path4931" fill="none" stroke="#000" stroke-width="50" d="m 11100,6500 -51,0"/><path id="path4933" fill="none" stroke="#000" stroke-width="50" d="m 10998,6500 -51,0"/><path id="path4935" fill="none" stroke="#000" stroke-width="50" d="m 10896,6500 -51,0"/><path id="path4937" fill="none" stroke="#000" stroke-width="50" d="m 10794,6500 -51,0"/><path id="path4939" fill="none" stroke="#000" stroke-width="50" d="m 10692,6500 -51,0"/><path id="path4941" fill="none" stroke="#000" stroke-width="50" d="m 10590,6500 -51,0"/><path id="path4943" fill="none" stroke="#000" stroke-width="50" d="m 10488,6500 -51,0"/><path id="path4945" fill="none" stroke="#000" stroke-width="50" d="m 10386,6500 -51,0"/><path id="path4947" fill="none" stroke="#000" stroke-width="50" d="m 10284,6500 -51,0"/><path id="path4949" fill="none" stroke="#000" stroke-width="50" d="m 10182,6500 -51,0"/><path id="path4951" fill="none" stroke="#000" stroke-width="50" d="m 10080,6500 -51,0"/><path id="path4953" fill="none" stroke="#000" stroke-width="50" d="m 9978,6500 -51,0"/><path id="path4955" fill="none" stroke="#000" stroke-width="50" d="m 9876,6500 -51,0"/><path id="path4957" fill="none" stroke="#000" stroke-width="50" d="m 9774,6500 -51,0"/><path id="path4959" fill="none" stroke="#000" stroke-width="50" d="m 9672,6500 -51,0"/><path id="path4961" fill="none" stroke="#000" stroke-width="50" d="m 9570,6500 -51,0"/><path id="path4963" fill="none" stroke="#000" stroke-width="50" d="m 9468,6500 -51,0"/><path id="path4965" fill="none" stroke="#000" stroke-width="50" d="m 9366,6500 -51,0"/><path id="path4967" fill="none" stroke="#000" stroke-width="50" d="m 9264,6500 -51,0"/><path id="path4969" fill="none" stroke="#000" stroke-width="50" d="m 9162,6500 -51,0"/><path id="path4971" fill="none" stroke="#000" stroke-width="50" d="m 9060,6500 -51,0"/><path id="path4973" fill="none" stroke="#000" stroke-width="50" d="m 8958,6500 -51,0"/><path id="path4975" fill="none" stroke="#000" stroke-width="50" d="m 8856,6500 -51,0"/><path id="path4977" fill="none" stroke="#000" stroke-width="50" d="m 8754,6500 -51,0"/><path id="path4979" fill="none" stroke="#000" stroke-width="50" d="m 8652,6500 -51,0"/><path id="path4981" fill="none" stroke="#000" stroke-width="50" d="m 8550,6500 -51,0"/><path id="path4983" fill="none" stroke="#000" stroke-width="50" d="m 8448,6500 -51,0"/><path id="path4985" fill="none" stroke="#000" stroke-width="50" d="m 8346,6500 -51,0"/><path id="path4987" fill="none" stroke="#000" stroke-width="50" d="m 8244,6500 -51,0"/><path id="path4989" fill="none" stroke="#000" stroke-width="50" d="m 8142,6500 -51,0"/><path id="path4991" fill="none" stroke="#000" stroke-width="50" d="m 8040,6500 -51,0"/><path id="path4993" fill="none" stroke="#000" stroke-width="50" d="m 7938,6500 -51,0"/><path id="path4995" fill="none" stroke="#000" stroke-width="50" d="m 7836,6500 -51,0"/><path id="path4997" fill="none" stroke="#000" stroke-width="50" d="m 7734,6500 -51,0"/><path id="path4999" fill="none" stroke="#000" stroke-width="50" d="m 7632,6500 -51,0"/><path id="path5001" fill="none" stroke="#000" stroke-width="50" d="m 7530,6500 -51,0"/><path id="path5003" fill="none" stroke="#000" stroke-width="50" d="m 7428,6500 -51,0"/><path id="path5005" fill="none" stroke="#000" stroke-width="50" d="m 7326,6500 -51,0"/><path id="path5007" fill="none" stroke="#000" stroke-width="50" d="m 7224,6500 -51,0"/><path id="path5009" fill="none" stroke="#000" stroke-width="50" d="m 7122,6500 -51,0"/><path id="path5011" fill="none" stroke="#000" stroke-width="50" d="m 7020,6500 -51,0"/><path id="path5013" fill="none" stroke="#000" stroke-width="50" d="m 6918,6500 -51,0"/><path id="path5015" fill="none" stroke="#000" stroke-width="50" d="m 6816,6500 -51,0"/><path id="path5017" fill="none" stroke="#000" stroke-width="50" d="m 6714,6500 -51,0"/><path id="path5019" fill="none" stroke="#000" stroke-width="50" d="m 6612,6500 -51,0"/><path id="path5021" fill="none" stroke="#000" stroke-width="50" d="m 6510,6500 -51,0"/><path id="path5023" fill="none" stroke="#000" stroke-width="50" d="m 6408,6500 -51,0"/><path id="path5025" fill="none" stroke="#000" stroke-width="50" d="m 6306,6500 -51,0"/><path id="path5027" fill="none" stroke="#000" stroke-width="50" d="m 6204,6500 -51,0"/><path id="path5029" fill="none" stroke="#000" stroke-width="50" d="m 6102,6500 -51,0"/><path id="path5031" fill="none" stroke="#000" stroke-width="50" d="m 6000,6500 -51,0"/><path id="path5033" fill="none" stroke="#000" stroke-width="50" d="m 5898,6500 -51,0"/><path id="path5035" fill="none" stroke="#000" stroke-width="50" d="m 5796,6500 -51,0"/><path id="path5037" fill="none" stroke="#000" stroke-width="50" d="m 5694,6500 -51,0"/><path id="path5039" fill="none" stroke="#000" stroke-width="50" d="m 5592,6500 -51,0"/><path id="path5041" fill="none" stroke="#000" stroke-width="50" d="m 5490,6500 -51,0"/><path id="path5043" fill="none" stroke="#000" stroke-width="50" d="m 5388,6500 -51,0"/><path id="path5045" fill="none" stroke="#000" stroke-width="50" d="m 5286,6500 -51,0"/><path id="path5047" fill="none" stroke="#000" stroke-width="50" d="m 5184,6500 -51,0"/><path id="path5049" fill="none" stroke="#000" stroke-width="50" d="m 5082,6500 -51,0"/><path id="path5051" fill="none" stroke="#000" stroke-width="50" d="m 4980,6500 -51,0"/><path id="path5053" fill="none" stroke="#000" stroke-width="50" d="m 4878,6500 -51,0"/><path id="path5055" fill="none" stroke="#000" stroke-width="50" d="m 4776,6500 -51,0"/><path id="path5057" fill="none" stroke="#000" stroke-width="50" d="m 4674,6500 -51,0"/><path id="path5059" fill="none" stroke="#000" stroke-width="50" d="m 4572,6500 -51,0"/><path id="path5061" fill="none" stroke="#000" stroke-width="50" d="m 4470,6500 -51,0"/><path id="path5063" fill="none" stroke="#000" stroke-width="50" d="m 4368,6500 -51,0"/></g></g><g id="g5065" class="com.sun.star.drawing.TextShape"><g id="id9"><text id="text5068" class="TextShape"><tspan id="tspan5070" class="TextParagraph" font-family="Arial, sans-serif" font-size="388" font-weight="400"><tspan id="tspan5072" x="5191" y="7168" class="TextPosition"><tspan id="tspan5074" fill="#000" stroke="none">Variables</tspan></tspan></tspan></text></g></g><g id="g5076" class="com.sun.star.drawing.TextShape"><g id="id10"><text id="text5079" class="TextShape"><tspan id="tspan5081" class="TextParagraph" font-family="Arial, sans-serif" font-size="388" font-weight="400"><tspan id="tspan5083" x="9091" y="7169" class="TextPosition"><tspan id="tspan5085" fill="#000" stroke="none">Values</tspan></tspan></tspan></text></g></g><g id="g5087" class="com.sun.star.drawing.LineShape"><g id="id11"><path id="path5090" fill="none" stroke="#000" stroke-width="50" d="m 11100,4900 -51,0"/><path id="path5092" fill="none" stroke="#000" stroke-width="50" d="m 10998,4900 -51,0"/><path id="path5094" fill="none" stroke="#000" stroke-width="50" d="m 10896,4900 -51,0"/><path id="path5096" fill="none" stroke="#000" stroke-width="50" d="m 10794,4900 -51,0"/><path id="path5098" fill="none" stroke="#000" stroke-width="50" d="m 10692,4900 -51,0"/><path id="path5100" fill="none" stroke="#000" stroke-width="50" d="m 10590,4900 -51,0"/><path id="path5102" fill="none" stroke="#000" stroke-width="50" d="m 10488,4900 -51,0"/><path id="path5104" fill="none" stroke="#000" stroke-width="50" d="m 10386,4900 -51,0"/><path id="path5106" fill="none" stroke="#000" stroke-width="50" d="m 10284,4900 -51,0"/><path id="path5108" fill="none" stroke="#000" stroke-width="50" d="m 10182,4900 -51,0"/><path id="path5110" fill="none" stroke="#000" stroke-width="50" d="m 10080,4900 -51,0"/><path id="path5112" fill="none" stroke="#000" stroke-width="50" d="m 9978,4900 -51,0"/><path id="path5114" fill="none" stroke="#000" stroke-width="50" d="m 9876,4900 -51,0"/><path id="path5116" fill="none" stroke="#000" stroke-width="50" d="m 9774,4900 -51,0"/><path id="path5118" fill="none" stroke="#000" stroke-width="50" d="m 9672,4900 -51,0"/><path id="path5120" fill="none" stroke="#000" stroke-width="50" d="m 9570,4900 -51,0"/><path id="path5122" fill="none" stroke="#000" stroke-width="50" d="m 9468,4900 -51,0"/><path id="path5124" fill="none" stroke="#000" stroke-width="50" d="m 9366,4900 -51,0"/><path id="path5126" fill="none" stroke="#000" stroke-width="50" d="m 9264,4900 -51,0"/><path id="path5128" fill="none" stroke="#000" stroke-width="50" d="m 9162,4900 -51,0"/><path id="path5130" fill="none" stroke="#000" stroke-width="50" d="m 9060,4900 -51,0"/><path id="path5132" fill="none" stroke="#000" stroke-width="50" d="m 8958,4900 -51,0"/><path id="path5134" fill="none" stroke="#000" stroke-width="50" d="m 8856,4900 -51,0"/><path id="path5136" fill="none" stroke="#000" stroke-width="50" d="m 8754,4900 -51,0"/><path id="path5138" fill="none" stroke="#000" stroke-width="50" d="m 8652,4900 -51,0"/><path id="path5140" fill="none" stroke="#000" stroke-width="50" d="m 8550,4900 -51,0"/><path id="path5142" fill="none" stroke="#000" stroke-width="50" d="m 8448,4900 -51,0"/><path id="path5144" fill="none" stroke="#000" stroke-width="50" d="m 8346,4900 -51,0"/><path id="path5146" fill="none" stroke="#000" stroke-width="50" d="m 8244,4900 -51,0"/><path id="path5148" fill="none" stroke="#000" stroke-width="50" d="m 8142,4900 -51,0"/><path id="path5150" fill="none" stroke="#000" stroke-width="50" d="m 8040,4900 -51,0"/><path id="path5152" fill="none" stroke="#000" stroke-width="50" d="m 7938,4900 -51,0"/><path id="path5154" fill="none" stroke="#000" stroke-width="50" d="m 7836,4900 -51,0"/><path id="path5156" fill="none" stroke="#000" stroke-width="50" d="m 7734,4900 -51,0"/><path id="path5158" fill="none" stroke="#000" stroke-width="50" d="m 7632,4900 -51,0"/><path id="path5160" fill="none" stroke="#000" stroke-width="50" d="m 7530,4900 -51,0"/><path id="path5162" fill="none" stroke="#000" stroke-width="50" d="m 7428,4900 -51,0"/><path id="path5164" fill="none" stroke="#000" stroke-width="50" d="m 7326,4900 -51,0"/><path id="path5166" fill="none" stroke="#000" stroke-width="50" d="m 7224,4900 -51,0"/><path id="path5168" fill="none" stroke="#000" stroke-width="50" d="m 7122,4900 -51,0"/><path id="path5170" fill="none" stroke="#000" stroke-width="50" d="m 7020,4900 -51,0"/><path id="path5172" fill="none" stroke="#000" stroke-width="50" d="m 6918,4900 -51,0"/><path id="path5174" fill="none" stroke="#000" stroke-width="50" d="m 6816,4900 -51,0"/><path id="path5176" fill="none" stroke="#000" stroke-width="50" d="m 6714,4900 -51,0"/><path id="path5178" fill="none" stroke="#000" stroke-width="50" d="m 6612,4900 -51,0"/><path id="path5180" fill="none" stroke="#000" stroke-width="50" d="m 6510,4900 -51,0"/><path id="path5182" fill="none" stroke="#000" stroke-width="50" d="m 6408,4900 -51,0"/><path id="path5184" fill="none" stroke="#000" stroke-width="50" d="m 6306,4900 -51,0"/><path id="path5186" fill="none" stroke="#000" stroke-width="50" d="m 6204,4900 -51,0"/><path id="path5188" fill="none" stroke="#000" stroke-width="50" d="m 6102,4900 -51,0"/><path id="path5190" fill="none" stroke="#000" stroke-width="50" d="m 6000,4900 -51,0"/><path id="path5192" fill="none" stroke="#000" stroke-width="50" d="m 5898,4900 -51,0"/><path id="path5194" fill="none" stroke="#000" stroke-width="50" d="m 5796,4900 -51,0"/><path id="path5196" fill="none" stroke="#000" stroke-width="50" d="m 5694,4900 -51,0"/><path id="path5198" fill="none" stroke="#000" stroke-width="50" d="m 5592,4900 -51,0"/><path id="path5200" fill="none" stroke="#000" stroke-width="50" d="m 5490,4900 -51,0"/><path id="path5202" fill="none" stroke="#000" stroke-width="50" d="m 5388,4900 -51,0"/><path id="path5204" fill="none" stroke="#000" stroke-width="50" d="m 5286,4900 -51,0"/><path id="path5206" fill="none" stroke="#000" stroke-width="50" d="m 5184,4900 -51,0"/><path id="path5208" fill="none" stroke="#000" stroke-width="50" d="m 5082,4900 -51,0"/><path id="path5210" fill="none" stroke="#000" stroke-width="50" d="m 4980,4900 -51,0"/><path id="path5212" fill="none" stroke="#000" stroke-width="50" d="m 4878,4900 -51,0"/><path id="path5214" fill="none" stroke="#000" stroke-width="50" d="m 4776,4900 -51,0"/><path id="path5216" fill="none" stroke="#000" stroke-width="50" d="m 4674,4900 -51,0"/><path id="path5218" fill="none" stroke="#000" stroke-width="50" d="m 4572,4900 -51,0"/><path id="path5220" fill="none" stroke="#000" stroke-width="50" d="m 4470,4900 -51,0"/><path id="path5222" fill="none" stroke="#000" stroke-width="50" d="m 4368,4900 -51,0"/></g></g><g id="g5224" class="com.sun.star.drawing.CustomShape"><g id="id12"><path id="path5227" fill="none" stroke="#000" stroke-width="50" d="m 3959,3200 c -30,0 -61,58 -61,116 l 0,467 c 0,59 -30,117 -60,117 30,0 60,58 60,117 l 0,467 c 0,58 31,116 61,116"/><path id="path5229" fill="none" stroke="#000" stroke-width="50" d="m 3838,3200 0,0 z"/><path id="path5231" fill="none" stroke="#000" stroke-width="50" d="m 3960,4601 0,0 z"/></g></g><g id="g5233" class="com.sun.star.drawing.TextShape"><g id="id13"><path id="path5236" fill="silver" stroke="none" d="m 6029,4201 -683,0 0,-683 1366,0 0,683 -683,0 z"/><text id="text5238" class="TextShape"><tspan id="tspan5240" class="TextParagraph" font-family="Arial, sans-serif" font-size="388" font-weight="400"><tspan id="tspan5242" x="5596" y="3994" class="TextPosition"><tspan id="tspan5244" fill="#000" stroke="none">temp</tspan></tspan></tspan></text></g></g><g id="g5246" class="com.sun.star.drawing.LineShape"><g id="id14"><path id="path5249" fill="none" stroke="#000" d="M 7000,3900 8664,5231"/><path id="path5251" fill="#000" stroke="none" d="m 9000,5500 -258,-398 -187,234 445,164 z"/></g></g><g id="g5253" class="com.sun.star.drawing.TextShape"><g id="id15"><text id="text5256" class="TextShape"><tspan id="tspan5258" class="TextParagraph" font-family="Arial, sans-serif" font-size="388" font-style="italic" font-weight="400"><tspan id="tspan5260" x="1291" y="1969" class="TextPosition"><tspan id="tspan5262" fill="#000" stroke="none">fahr_to_kelvin</tspan></tspan></tspan></text></g></g><g id="g5264" class="com.sun.star.drawing.LineShape"><g id="id16"><path id="path5267" fill="none" stroke="#000" stroke-width="50" d="m 11100,2900 -51,0"/><path id="path5269" fill="none" stroke="#000" stroke-width="50" d="m 10998,2900 -51,0"/><path id="path5271" fill="none" stroke="#000" stroke-width="50" d="m 10896,2900 -51,0"/><path id="path5273" fill="none" stroke="#000" stroke-width="50" d="m 10794,2900 -51,0"/><path id="path5275" fill="none" stroke="#000" stroke-width="50" d="m 10692,2900 -51,0"/><path id="path5277" fill="none" stroke="#000" stroke-width="50" d="m 10590,2900 -51,0"/><path id="path5279" fill="none" stroke="#000" stroke-width="50" d="m 10488,2900 -51,0"/><path id="path5281" fill="none" stroke="#000" stroke-width="50" d="m 10386,2900 -51,0"/><path id="path5283" fill="none" stroke="#000" stroke-width="50" d="m 10284,2900 -51,0"/><path id="path5285" fill="none" stroke="#000" stroke-width="50" d="m 10182,2900 -51,0"/><path id="path5287" fill="none" stroke="#000" stroke-width="50" d="m 10080,2900 -51,0"/><path id="path5289" fill="none" stroke="#000" stroke-width="50" d="m 9978,2900 -51,0"/><path id="path5291" fill="none" stroke="#000" stroke-width="50" d="m 9876,2900 -51,0"/><path id="path5293" fill="none" stroke="#000" stroke-width="50" d="m 9774,2900 -51,0"/><path id="path5295" fill="none" stroke="#000" stroke-width="50" d="m 9672,2900 -51,0"/><path id="path5297" fill="none" stroke="#000" stroke-width="50" d="m 9570,2900 -51,0"/><path id="path5299" fill="none" stroke="#000" stroke-width="50" d="m 9468,2900 -51,0"/><path id="path5301" fill="none" stroke="#000" stroke-width="50" d="m 9366,2900 -51,0"/><path id="path5303" fill="none" stroke="#000" stroke-width="50" d="m 9264,2900 -51,0"/><path id="path5305" fill="none" stroke="#000" stroke-width="50" d="m 9162,2900 -51,0"/><path id="path5307" fill="none" stroke="#000" stroke-width="50" d="m 9060,2900 -51,0"/><path id="path5309" fill="none" stroke="#000" stroke-width="50" d="m 8958,2900 -51,0"/><path id="path5311" fill="none" stroke="#000" stroke-width="50" d="m 8856,2900 -51,0"/><path id="path5313" fill="none" stroke="#000" stroke-width="50" d="m 8754,2900 -51,0"/><path id="path5315" fill="none" stroke="#000" stroke-width="50" d="m 8652,2900 -51,0"/><path id="path5317" fill="none" stroke="#000" stroke-width="50" d="m 8550,2900 -51,0"/><path id="path5319" fill="none" stroke="#000" stroke-width="50" d="m 8448,2900 -51,0"/><path id="path5321" fill="none" stroke="#000" stroke-width="50" d="m 8346,2900 -51,0"/><path id="path5323" fill="none" stroke="#000" stroke-width="50" d="m 8244,2900 -51,0"/><path id="path5325" fill="none" stroke="#000" stroke-width="50" d="m 8142,2900 -51,0"/><path id="path5327" fill="none" stroke="#000" stroke-width="50" d="m 8040,2900 -51,0"/><path id="path5329" fill="none" stroke="#000" stroke-width="50" d="m 7938,2900 -51,0"/><path id="path5331" fill="none" stroke="#000" stroke-width="50" d="m 7836,2900 -51,0"/><path id="path5333" fill="none" stroke="#000" stroke-width="50" d="m 7734,2900 -51,0"/><path id="path5335" fill="none" stroke="#000" stroke-width="50" d="m 7632,2900 -51,0"/><path id="path5337" fill="none" stroke="#000" stroke-width="50" d="m 7530,2900 -51,0"/><path id="path5339" fill="none" stroke="#000" stroke-width="50" d="m 7428,2900 -51,0"/><path id="path5341" fill="none" stroke="#000" stroke-width="50" d="m 7326,2900 -51,0"/><path id="path5343" fill="none" stroke="#000" stroke-width="50" d="m 7224,2900 -51,0"/><path id="path5345" fill="none" stroke="#000" stroke-width="50" d="m 7122,2900 -51,0"/><path id="path5347" fill="none" stroke="#000" stroke-width="50" d="m 7020,2900 -51,0"/><path id="path5349" fill="none" stroke="#000" stroke-width="50" d="m 6918,2900 -51,0"/><path id="path5351" fill="none" stroke="#000" stroke-width="50" d="m 6816,2900 -51,0"/><path id="path5353" fill="none" stroke="#000" stroke-width="50" d="m 6714,2900 -51,0"/><path id="path5355" fill="none" stroke="#000" stroke-width="50" d="m 6612,2900 -51,0"/><path id="path5357" fill="none" stroke="#000" stroke-width="50" d="m 6510,2900 -51,0"/><path id="path5359" fill="none" stroke="#000" stroke-width="50" d="m 6408,2900 -51,0"/><path id="path5361" fill="none" stroke="#000" stroke-width="50" d="m 6306,2900 -51,0"/><path id="path5363" fill="none" stroke="#000" stroke-width="50" d="m 6204,2900 -51,0"/><path id="path5365" fill="none" stroke="#000" stroke-width="50" d="m 6102,2900 -51,0"/><path id="path5367" fill="none" stroke="#000" stroke-width="50" d="m 6000,2900 -51,0"/><path id="path5369" fill="none" stroke="#000" stroke-width="50" d="m 5898,2900 -51,0"/><path id="path5371" fill="none" stroke="#000" stroke-width="50" d="m 5796,2900 -51,0"/><path id="path5373" fill="none" stroke="#000" stroke-width="50" d="m 5694,2900 -51,0"/><path id="path5375" fill="none" stroke="#000" stroke-width="50" d="m 5592,2900 -51,0"/><path id="path5377" fill="none" stroke="#000" stroke-width="50" d="m 5490,2900 -51,0"/><path id="path5379" fill="none" stroke="#000" stroke-width="50" d="m 5388,2900 -51,0"/><path id="path5381" fill="none" stroke="#000" stroke-width="50" d="m 5286,2900 -51,0"/><path id="path5383" fill="none" stroke="#000" stroke-width="50" d="m 5184,2900 -51,0"/><path id="path5385" fill="none" stroke="#000" stroke-width="50" d="m 5082,2900 -51,0"/><path id="path5387" fill="none" stroke="#000" stroke-width="50" d="m 4980,2900 -51,0"/><path id="path5389" fill="none" stroke="#000" stroke-width="50" d="m 4878,2900 -51,0"/><path id="path5391" fill="none" stroke="#000" stroke-width="50" d="m 4776,2900 -51,0"/><path id="path5393" fill="none" stroke="#000" stroke-width="50" d="m 4674,2900 -51,0"/><path id="path5395" fill="none" stroke="#000" stroke-width="50" d="m 4572,2900 -51,0"/><path id="path5397" fill="none" stroke="#000" stroke-width="50" d="m 4470,2900 -51,0"/><path id="path5399" fill="none" stroke="#000" stroke-width="50" d="m 4368,2900 -51,0"/></g></g><g id="g5401" class="com.sun.star.drawing.CustomShape"><g id="id17"><path id="path5404" fill="none" stroke="#000" stroke-width="50" d="m 3959,1200 c -30,0 -61,58 -61,116 l 0,467 c 0,59 -30,117 -60,117 30,0 60,58 60,117 l 0,467 c 0,58 31,116 61,116"/><path id="path5406" fill="none" stroke="#000" stroke-width="50" d="m 3838,1200 0,0 z"/><path id="path5408" fill="none" stroke="#000" stroke-width="50" d="m 3960,2601 0,0 z"/></g></g><g id="g5410" class="com.sun.star.drawing.TextShape"><g id="id18"><path id="path5413" fill="silver" stroke="none" d="m 6029,2201 -683,0 0,-683 1366,0 0,683 -683,0 z"/><text id="text5415" class="TextShape"><tspan id="tspan5417" class="TextParagraph" font-family="Arial, sans-serif" font-size="388" font-weight="400"><tspan id="tspan5419" x="5596" y="1994" class="TextPosition"><tspan id="tspan5421" fill="#000" stroke="none">temp</tspan></tspan></tspan></text></g></g><g id="g5423" class="com.sun.star.drawing.LineShape"><g id="id19"><path id="path5426" fill="none" stroke="#000" d="M 7000,1900 8772,4735"/><path id="path5428" fill="#000" stroke="none" d="m 9000,5100 -111,-461 -255,159 366,302 z"/></g></g></g></g></g></g></svg>