<svg xmlns="http://www.w3.org/2000/svg" xmlns:ooo="http://xml.openoffice.org/svg/export" xmlns:svg="http://www.w3.org/2000/svg" id="svg9988" width="242.114" height="154.134" fill-rule="evenodd" stroke-linejoin="round" stroke-width="28.222" clip-path="url(#presentation_clip_path)" preserveAspectRatio="xMidYMid" version="1.2" viewBox="0 0 6833 4350" xml:space="preserve"><metadata id="metadata10358"/><defs id="defs9990" class="ClipPathGroup"><clipPath id="presentation_clip_path" clipPathUnits="userSpaceOnUse"><rect id="rect9993" width="21590" height="27940" x="0" y="0"/></clipPath></defs><defs id="defs9999" class="EmbeddedBulletChars"><g id="bullet-char-template(57356)" transform="scale(4.8828125e-4,-4.8828125e-4)"><path id="path10002" d="M 580,1141 1163,571 580,0 -4,571 580,1141 z"/></g><g id="bullet-char-template(57354)" transform="scale(4.8828125e-4,-4.8828125e-4)"><path id="path10005" d="m 8,1128 1129,0 L 1137,0 8,0 8,1128 z"/></g><g id="bullet-char-template(10146)" transform="scale(4.8828125e-4,-4.8828125e-4)"><path id="path10008" d="M 174,0 602,739 174,1481 1456,739 174,0 z m 1184,739 -1049,607 350,-607 699,0 z"/></g><g id="bullet-char-template(10132)" transform="scale(4.8828125e-4,-4.8828125e-4)"><path id="path10011" d="M 2015,739 1276,0 717,0 l 543,543 -1086,0 0,393 1086,0 -543,545 557,0 741,-742 z"/></g><g id="bullet-char-template(10007)" transform="scale(4.8828125e-4,-4.8828125e-4)"><path id="path10014" d="m 0,-2 c -7,16 -16,29 -25,39 l 381,530 c -94,256 -141,385 -141,387 0,25 13,38 40,38 9,0 21,-2 34,-5 21,4 42,12 65,25 l 27,-13 111,-251 280,301 64,-25 24,25 c 21,-10 41,-24 62,-43 C 886,937 835,863 770,784 769,783 710,716 594,584 L 774,223 c 0,-27 -21,-55 -63,-84 l 16,-20 C 717,90 699,76 672,76 641,76 570,178 457,381 L 164,-76 c -22,-34 -53,-51 -92,-51 -42,0 -63,17 -64,51 -7,9 -10,24 -10,44 0,9 1,19 2,30 z"/></g><g id="bullet-char-template(10004)" transform="scale(4.8828125e-4,-4.8828125e-4)"><path id="path10017" d="M 285,-33 C 182,-33 111,30 74,156 52,228 41,333 41,471 c 0,78 14,145 41,201 34,71 87,106 158,106 53,0 88,-31 106,-94 l 23,-176 c 8,-64 28,-97 59,-98 l 735,706 c 11,11 33,17 66,17 42,0 63,-15 63,-46 l 0,-122 c 0,-36 -10,-64 -30,-84 L 442,47 C 390,-6 338,-33 285,-33 z"/></g><g id="bullet-char-template(9679)" transform="scale(4.8828125e-4,-4.8828125e-4)"><path id="path10020" d="M 813,0 C 632,0 489,54 383,161 276,268 223,411 223,592 c 0,181 53,324 160,431 106,107 249,161 430,161 179,0 323,-54 432,-161 108,-107 162,-251 162,-431 0,-180 -54,-324 -162,-431 C 1136,54 992,0 813,0 z"/></g><g id="bullet-char-template(8226)" transform="scale(4.8828125e-4,-4.8828125e-4)"><path id="path10023" d="m 346,457 c -73,0 -137,26 -191,78 -54,51 -81,114 -81,188 0,73 27,136 81,188 54,52 118,78 191,78 73,0 134,-26 185,-79 51,-51 77,-114 77,-187 0,-75 -25,-137 -76,-188 -50,-52 -112,-78 -186,-78 z"/></g><g id="bullet-char-template(8211)" transform="scale(4.8828125e-4,-4.8828125e-4)"><path id="path10026" d="m -4,459 1139,0 0,147 -1139,0 0,-147 z"/></g></defs><g id="g10035" class="SlideGroup" transform="translate(-1092,-1075)"><g id="g10037"><g id="id1" class="Slide" clip-path="url(#presentation_clip_path)"><g id="g10040" class="Page"><g id="g10042" class="com.sun.star.drawing.LineShape"><g id="id3"><path id="path10045" fill="none" stroke="#000" d="m 3900,3600 1470,0"/><path id="path10047" fill="#000" stroke="none" d="m 5800,3600 -450,-150 0,300 450,-150 z"/></g></g><g id="g10049" class="com.sun.star.drawing.TextShape"><g id="id4"><path id="path10052" fill="silver" stroke="none" d="m 2823,4000 -878,0 0,-683 1755,0 0,683 -877,0 z"/><text id="text10054" class="TextShape"><tspan id="tspan10056" class="TextParagraph" font-family="Arial, sans-serif" font-size="388" font-weight="400"><tspan id="tspan10058" x="2195" y="3793" class="TextPosition"><tspan id="tspan10060" fill="#000" stroke="none">original</tspan></tspan></tspan></text></g></g><g id="g10062" class="com.sun.star.drawing.TextShape"><g id="id5"><path id="path10065" fill="none" stroke="#000" stroke-width="50" d="m 6492,4000 -492,0 0,-733 984,0 0,733 -492,0 z"/><text id="text10067" class="TextShape"><tspan id="tspan10069" class="TextParagraph" font-family="Arial, sans-serif" font-size="388" font-weight="400"><tspan id="tspan10071" x="6275" y="3768" class="TextPosition"><tspan id="tspan10073" fill="#000" stroke="none">32</tspan></tspan></tspan></text></g></g><g id="g10075" class="com.sun.star.drawing.LineShape"><g id="id6"><path id="path10078" fill="none" stroke="#000" stroke-width="50" d="m 4600,5400 0,-51"/><path id="path10080" fill="none" stroke="#000" stroke-width="50" d="m 4600,5298 0,-51"/><path id="path10082" fill="none" stroke="#000" stroke-width="50" d="m 4600,5196 0,-51"/><path id="path10084" fill="none" stroke="#000" stroke-width="50" d="m 4600,5094 0,-51"/><path id="path10086" fill="none" stroke="#000" stroke-width="50" d="m 4600,4992 0,-51"/><path id="path10088" fill="none" stroke="#000" stroke-width="50" d="m 4600,4890 0,-51"/><path id="path10090" fill="none" stroke="#000" stroke-width="50" d="m 4600,4788 0,-51"/><path id="path10092" fill="none" stroke="#000" stroke-width="50" d="m 4600,4686 0,-51"/><path id="path10094" fill="none" stroke="#000" stroke-width="50" d="m 4600,4584 0,-51"/><path id="path10096" fill="none" stroke="#000" stroke-width="50" d="m 4600,4482 0,-51"/><path id="path10098" fill="none" stroke="#000" stroke-width="50" d="m 4600,4380 0,-51"/><path id="path10100" fill="none" stroke="#000" stroke-width="50" d="m 4600,4278 0,-51"/><path id="path10102" fill="none" stroke="#000" stroke-width="50" d="m 4600,4176 0,-51"/><path id="path10104" fill="none" stroke="#000" stroke-width="50" d="m 4600,4074 0,-51"/><path id="path10106" fill="none" stroke="#000" stroke-width="50" d="m 4600,3972 0,-51"/><path id="path10108" fill="none" stroke="#000" stroke-width="50" d="m 4600,3870 0,-51"/><path id="path10110" fill="none" stroke="#000" stroke-width="50" d="m 4600,3768 0,-51"/><path id="path10112" fill="none" stroke="#000" stroke-width="50" d="m 4600,3666 0,-51"/><path id="path10114" fill="none" stroke="#000" stroke-width="50" d="m 4600,3564 0,-51"/><path id="path10116" fill="none" stroke="#000" stroke-width="50" d="m 4600,3462 0,-51"/><path id="path10118" fill="none" stroke="#000" stroke-width="50" d="m 4600,3360 0,-51"/><path id="path10120" fill="none" stroke="#000" stroke-width="50" d="m 4600,3258 0,-51"/><path id="path10122" fill="none" stroke="#000" stroke-width="50" d="m 4600,3156 0,-51"/><path id="path10124" fill="none" stroke="#000" stroke-width="50" d="m 4600,3054 0,-51"/><path id="path10126" fill="none" stroke="#000" stroke-width="50" d="m 4600,2952 0,-51"/><path id="path10128" fill="none" stroke="#000" stroke-width="50" d="m 4600,2850 0,-51"/><path id="path10130" fill="none" stroke="#000" stroke-width="50" d="m 4600,2748 0,-51"/><path id="path10132" fill="none" stroke="#000" stroke-width="50" d="m 4600,2646 0,-51"/><path id="path10134" fill="none" stroke="#000" stroke-width="50" d="m 4600,2544 0,-51"/><path id="path10136" fill="none" stroke="#000" stroke-width="50" d="m 4600,2442 0,-51"/><path id="path10138" fill="none" stroke="#000" stroke-width="50" d="m 4600,2340 0,-51"/><path id="path10140" fill="none" stroke="#000" stroke-width="50" d="m 4600,2238 0,-51"/><path id="path10142" fill="none" stroke="#000" stroke-width="50" d="m 4600,2136 0,-51"/><path id="path10144" fill="none" stroke="#000" stroke-width="50" d="m 4600,2034 0,-51"/><path id="path10146" fill="none" stroke="#000" stroke-width="50" d="m 4600,1932 0,-51"/><path id="path10148" fill="none" stroke="#000" stroke-width="50" d="m 4600,1830 0,-51"/><path id="path10150" fill="none" stroke="#000" stroke-width="50" d="m 4600,1728 0,-51"/><path id="path10152" fill="none" stroke="#000" stroke-width="50" d="m 4600,1626 0,-51"/><path id="path10154" fill="none" stroke="#000" stroke-width="50" d="m 4600,1524 0,-51"/><path id="path10156" fill="none" stroke="#000" stroke-width="50" d="m 4600,1422 0,-51"/><path id="path10158" fill="none" stroke="#000" stroke-width="50" d="m 4600,1320 0,-51"/><path id="path10160" fill="none" stroke="#000" stroke-width="50" d="m 4600,1218 0,-51"/><path id="path10162" fill="none" stroke="#000" stroke-width="50" d="m 4600,1116 0,-16"/></g></g><g id="g10164" class="com.sun.star.drawing.LineShape"><g id="id7"><path id="path10167" fill="none" stroke="#000" stroke-width="50" d="m 7900,4400 -51,0"/><path id="path10169" fill="none" stroke="#000" stroke-width="50" d="m 7798,4400 -51,0"/><path id="path10171" fill="none" stroke="#000" stroke-width="50" d="m 7696,4400 -51,0"/><path id="path10173" fill="none" stroke="#000" stroke-width="50" d="m 7594,4400 -51,0"/><path id="path10175" fill="none" stroke="#000" stroke-width="50" d="m 7492,4400 -51,0"/><path id="path10177" fill="none" stroke="#000" stroke-width="50" d="m 7390,4400 -51,0"/><path id="path10179" fill="none" stroke="#000" stroke-width="50" d="m 7288,4400 -51,0"/><path id="path10181" fill="none" stroke="#000" stroke-width="50" d="m 7186,4400 -51,0"/><path id="path10183" fill="none" stroke="#000" stroke-width="50" d="m 7084,4400 -51,0"/><path id="path10185" fill="none" stroke="#000" stroke-width="50" d="m 6982,4400 -51,0"/><path id="path10187" fill="none" stroke="#000" stroke-width="50" d="m 6880,4400 -51,0"/><path id="path10189" fill="none" stroke="#000" stroke-width="50" d="m 6778,4400 -51,0"/><path id="path10191" fill="none" stroke="#000" stroke-width="50" d="m 6676,4400 -51,0"/><path id="path10193" fill="none" stroke="#000" stroke-width="50" d="m 6574,4400 -51,0"/><path id="path10195" fill="none" stroke="#000" stroke-width="50" d="m 6472,4400 -51,0"/><path id="path10197" fill="none" stroke="#000" stroke-width="50" d="m 6370,4400 -51,0"/><path id="path10199" fill="none" stroke="#000" stroke-width="50" d="m 6268,4400 -51,0"/><path id="path10201" fill="none" stroke="#000" stroke-width="50" d="m 6166,4400 -51,0"/><path id="path10203" fill="none" stroke="#000" stroke-width="50" d="m 6064,4400 -51,0"/><path id="path10205" fill="none" stroke="#000" stroke-width="50" d="m 5962,4400 -51,0"/><path id="path10207" fill="none" stroke="#000" stroke-width="50" d="m 5860,4400 -51,0"/><path id="path10209" fill="none" stroke="#000" stroke-width="50" d="m 5758,4400 -51,0"/><path id="path10211" fill="none" stroke="#000" stroke-width="50" d="m 5656,4400 -51,0"/><path id="path10213" fill="none" stroke="#000" stroke-width="50" d="m 5554,4400 -51,0"/><path id="path10215" fill="none" stroke="#000" stroke-width="50" d="m 5452,4400 -51,0"/><path id="path10217" fill="none" stroke="#000" stroke-width="50" d="m 5350,4400 -51,0"/><path id="path10219" fill="none" stroke="#000" stroke-width="50" d="m 5248,4400 -51,0"/><path id="path10221" fill="none" stroke="#000" stroke-width="50" d="m 5146,4400 -51,0"/><path id="path10223" fill="none" stroke="#000" stroke-width="50" d="m 5044,4400 -51,0"/><path id="path10225" fill="none" stroke="#000" stroke-width="50" d="m 4942,4400 -51,0"/><path id="path10227" fill="none" stroke="#000" stroke-width="50" d="m 4840,4400 -51,0"/><path id="path10229" fill="none" stroke="#000" stroke-width="50" d="m 4738,4400 -51,0"/><path id="path10231" fill="none" stroke="#000" stroke-width="50" d="m 4636,4400 -51,0"/><path id="path10233" fill="none" stroke="#000" stroke-width="50" d="m 4534,4400 -51,0"/><path id="path10235" fill="none" stroke="#000" stroke-width="50" d="m 4432,4400 -51,0"/><path id="path10237" fill="none" stroke="#000" stroke-width="50" d="m 4330,4400 -51,0"/><path id="path10239" fill="none" stroke="#000" stroke-width="50" d="m 4228,4400 -51,0"/><path id="path10241" fill="none" stroke="#000" stroke-width="50" d="m 4126,4400 -51,0"/><path id="path10243" fill="none" stroke="#000" stroke-width="50" d="m 4024,4400 -51,0"/><path id="path10245" fill="none" stroke="#000" stroke-width="50" d="m 3922,4400 -51,0"/><path id="path10247" fill="none" stroke="#000" stroke-width="50" d="m 3820,4400 -51,0"/><path id="path10249" fill="none" stroke="#000" stroke-width="50" d="m 3718,4400 -51,0"/><path id="path10251" fill="none" stroke="#000" stroke-width="50" d="m 3616,4400 -51,0"/><path id="path10253" fill="none" stroke="#000" stroke-width="50" d="m 3514,4400 -51,0"/><path id="path10255" fill="none" stroke="#000" stroke-width="50" d="m 3412,4400 -51,0"/><path id="path10257" fill="none" stroke="#000" stroke-width="50" d="m 3310,4400 -51,0"/><path id="path10259" fill="none" stroke="#000" stroke-width="50" d="m 3208,4400 -51,0"/><path id="path10261" fill="none" stroke="#000" stroke-width="50" d="m 3106,4400 -51,0"/><path id="path10263" fill="none" stroke="#000" stroke-width="50" d="m 3004,4400 -51,0"/><path id="path10265" fill="none" stroke="#000" stroke-width="50" d="m 2902,4400 -51,0"/><path id="path10267" fill="none" stroke="#000" stroke-width="50" d="m 2800,4400 -51,0"/><path id="path10269" fill="none" stroke="#000" stroke-width="50" d="m 2698,4400 -51,0"/><path id="path10271" fill="none" stroke="#000" stroke-width="50" d="m 2596,4400 -51,0"/><path id="path10273" fill="none" stroke="#000" stroke-width="50" d="m 2494,4400 -51,0"/><path id="path10275" fill="none" stroke="#000" stroke-width="50" d="m 2392,4400 -51,0"/><path id="path10277" fill="none" stroke="#000" stroke-width="50" d="m 2290,4400 -51,0"/><path id="path10279" fill="none" stroke="#000" stroke-width="50" d="m 2188,4400 -51,0"/><path id="path10281" fill="none" stroke="#000" stroke-width="50" d="m 2086,4400 -51,0"/><path id="path10283" fill="none" stroke="#000" stroke-width="50" d="m 1984,4400 -51,0"/><path id="path10285" fill="none" stroke="#000" stroke-width="50" d="m 1882,4400 -51,0"/><path id="path10287" fill="none" stroke="#000" stroke-width="50" d="m 1780,4400 -51,0"/><path id="path10289" fill="none" stroke="#000" stroke-width="50" d="m 1678,4400 -51,0"/><path id="path10291" fill="none" stroke="#000" stroke-width="50" d="m 1576,4400 -51,0"/><path id="path10293" fill="none" stroke="#000" stroke-width="50" d="m 1474,4400 -51,0"/><path id="path10295" fill="none" stroke="#000" stroke-width="50" d="m 1372,4400 -51,0"/><path id="path10297" fill="none" stroke="#000" stroke-width="50" d="m 1270,4400 -51,0"/><path id="path10299" fill="none" stroke="#000" stroke-width="50" d="m 1168,4400 -51,0"/></g></g><g id="g10301" class="com.sun.star.drawing.TextShape"><g id="id8"><text id="text10304" class="TextShape"><tspan id="tspan10306" class="TextParagraph" font-family="Arial, sans-serif" font-size="388" font-weight="400"><tspan id="tspan10308" x="1991" y="5068" class="TextPosition"><tspan id="tspan10310" fill="#000" stroke="none">Variables</tspan></tspan></tspan></text></g></g><g id="g10312" class="com.sun.star.drawing.TextShape"><g id="id9"><text id="text10315" class="TextShape"><tspan id="tspan10317" class="TextParagraph" font-family="Arial, sans-serif" font-size="388" font-weight="400"><tspan id="tspan10319" x="5891" y="5069" class="TextPosition"><tspan id="tspan10321" fill="#000" stroke="none">Values</tspan></tspan></tspan></text></g></g><g id="g10323" class="com.sun.star.drawing.TextShape"><g id="id10"><path id="path10326" fill="none" stroke="#000" stroke-width="50" d="m 6446,3001 -545,0 0,-733 1090,0 0,733 -545,0 z"/><text id="text10328" class="TextShape"><tspan id="tspan10330" class="TextParagraph" font-family="Arial, sans-serif" font-size="388" font-weight="400"><tspan id="tspan10332" x="6176" y="2769" class="TextPosition"><tspan id="tspan10334" fill="#000" stroke="none">0.0</tspan></tspan></tspan></text></g></g><g id="g10336" class="com.sun.star.drawing.LineShape"><g id="id11"><path id="path10339" fill="none" stroke="#000" d="m 3801,2700 1469,0"/><path id="path10341" fill="#000" stroke="none" d="m 5700,2700 -450,-150 0,300 450,-150 z"/></g></g><g id="g10343" class="com.sun.star.drawing.TextShape"><g id="id12"><path id="path10346" fill="silver" stroke="none" d="m 2853,3001 -607,0 0,-683 1213,0 0,683 -606,0 z"/><text id="text10348" class="TextShape"><tspan id="tspan10350" class="TextParagraph" font-family="Arial, sans-serif" font-size="388" font-weight="400"><tspan id="tspan10352" x="2496" y="2794" class="TextPosition"><tspan id="tspan10354" fill="#000" stroke="none">final</tspan></tspan></tspan></text></g></g></g></g></g></g></svg>