<svg xmlns="http://www.w3.org/2000/svg" xmlns:ooo="http://xml.openoffice.org/svg/export" xmlns:svg="http://www.w3.org/2000/svg" id="svg7452" width="365.695" height="278.15" fill-rule="evenodd" stroke-linejoin="round" stroke-width="28.222" clip-path="url(#presentation_clip_path)" preserveAspectRatio="xMidYMid" version="1.2" viewBox="0 0 10320.739 7850" xml:space="preserve"><metadata id="metadata8244"/><defs id="defs7454" class="ClipPathGroup"><clipPath id="presentation_clip_path" clipPathUnits="userSpaceOnUse"><rect id="rect7457" width="21590" height="27940" x="0" y="0"/></clipPath></defs><defs id="defs7463" class="EmbeddedBulletChars"><g id="bullet-char-template(57356)" transform="scale(4.8828125e-4,-4.8828125e-4)"><path id="path7466" d="M 580,1141 1163,571 580,0 -4,571 580,1141 z"/></g><g id="bullet-char-template(57354)" transform="scale(4.8828125e-4,-4.8828125e-4)"><path id="path7469" d="m 8,1128 1129,0 L 1137,0 8,0 8,1128 z"/></g><g id="bullet-char-template(10146)" transform="scale(4.8828125e-4,-4.8828125e-4)"><path id="path7472" d="M 174,0 602,739 174,1481 1456,739 174,0 z m 1184,739 -1049,607 350,-607 699,0 z"/></g><g id="bullet-char-template(10132)" transform="scale(4.8828125e-4,-4.8828125e-4)"><path id="path7475" d="M 2015,739 1276,0 717,0 l 543,543 -1086,0 0,393 1086,0 -543,545 557,0 741,-742 z"/></g><g id="bullet-char-template(10007)" transform="scale(4.8828125e-4,-4.8828125e-4)"><path id="path7478" d="m 0,-2 c -7,16 -16,29 -25,39 l 381,530 c -94,256 -141,385 -141,387 0,25 13,38 40,38 9,0 21,-2 34,-5 21,4 42,12 65,25 l 27,-13 111,-251 280,301 64,-25 24,25 c 21,-10 41,-24 62,-43 C 886,937 835,863 770,784 769,783 710,716 594,584 L 774,223 c 0,-27 -21,-55 -63,-84 l 16,-20 C 717,90 699,76 672,76 641,76 570,178 457,381 L 164,-76 c -22,-34 -53,-51 -92,-51 -42,0 -63,17 -64,51 -7,9 -10,24 -10,44 0,9 1,19 2,30 z"/></g><g id="bullet-char-template(10004)" transform="scale(4.8828125e-4,-4.8828125e-4)"><path id="path7481" d="M 285,-33 C 182,-33 111,30 74,156 52,228 41,333 41,471 c 0,78 14,145 41,201 34,71 87,106 158,106 53,0 88,-31 106,-94 l 23,-176 c 8,-64 28,-97 59,-98 l 735,706 c 11,11 33,17 66,17 42,0 63,-15 63,-46 l 0,-122 c 0,-36 -10,-64 -30,-84 L 442,47 C 390,-6 338,-33 285,-33 z"/></g><g id="bullet-char-template(9679)" transform="scale(4.8828125e-4,-4.8828125e-4)"><path id="path7484" d="M 813,0 C 632,0 489,54 383,161 276,268 223,411 223,592 c 0,181 53,324 160,431 106,107 249,161 430,161 179,0 323,-54 432,-161 108,-107 162,-251 162,-431 0,-180 -54,-324 -162,-431 C 1136,54 992,0 813,0 z"/></g><g id="bullet-char-template(8226)" transform="scale(4.8828125e-4,-4.8828125e-4)"><path id="path7487" d="m 346,457 c -73,0 -137,26 -191,78 -54,51 -81,114 -81,188 0,73 27,136 81,188 54,52 118,78 191,78 73,0 134,-26 185,-79 51,-51 77,-114 77,-187 0,-75 -25,-137 -76,-188 -50,-52 -112,-78 -186,-78 z"/></g><g id="bullet-char-template(8211)" transform="scale(4.8828125e-4,-4.8828125e-4)"><path id="path7490" d="m -4,459 1139,0 0,147 -1139,0 0,-147 z"/></g></defs><g id="g7499" class="SlideGroup" transform="translate(-1404.2617,-1075)"><g id="g7501"><g id="id1" class="Slide" clip-path="url(#presentation_clip_path)"><g id="g7504" class="Page"><g id="g7506" class="com.sun.star.drawing.TextShape"><g id="id3"><text id="text7509" class="TextShape"><tspan id="tspan7511" class="TextParagraph" font-family="Arial, sans-serif" font-size="388" font-style="italic" font-weight="400"><tspan id="tspan7513" x="1691" y="4969" class="TextPosition"><tspan id="tspan7515" fill="#000" stroke="none">fahr_to_celsius</tspan></tspan></tspan></text></g></g><g id="g7517" class="com.sun.star.drawing.LineShape"><g id="id4"><path id="path7520" fill="none" stroke="#000" d="m 7700,7100 1470,0"/><path id="path7522" fill="#000" stroke="none" d="m 9600,7100 -450,-150 0,300 450,-150 z"/></g></g><g id="g7524" class="com.sun.star.drawing.TextShape"><g id="id5"><path id="path7527" fill="silver" stroke="none" d="m 6623,7500 -878,0 0,-683 1755,0 0,683 -877,0 z"/><text id="text7529" class="TextShape"><tspan id="tspan7531" class="TextParagraph" font-family="Arial, sans-serif" font-size="388" font-weight="400"><tspan id="tspan7533" x="5995" y="7293" class="TextPosition"><tspan id="tspan7535" fill="#000" stroke="none">original</tspan></tspan></tspan></text></g></g><g id="g7537" class="com.sun.star.drawing.TextShape"><g id="id6"><path id="path7540" fill="none" stroke="#000" stroke-width="50" d="m 10292,7500 -492,0 0,-733 984,0 0,733 -492,0 z"/><text id="text7542" class="TextShape"><tspan id="tspan7544" class="TextParagraph" font-family="Arial, sans-serif" font-size="388" font-weight="400"><tspan id="tspan7546" x="10075" y="7268" class="TextPosition"><tspan id="tspan7548" fill="#000" stroke="none">32</tspan></tspan></tspan></text></g></g><g id="g7550" class="com.sun.star.drawing.LineShape"><g id="id7"><path id="path7553" fill="none" stroke="#000" stroke-width="50" d="m 8400,8900 0,-51"/><path id="path7555" fill="none" stroke="#000" stroke-width="50" d="m 8400,8798 0,-51"/><path id="path7557" fill="none" stroke="#000" stroke-width="50" d="m 8400,8696 0,-51"/><path id="path7559" fill="none" stroke="#000" stroke-width="50" d="m 8400,8594 0,-51"/><path id="path7561" fill="none" stroke="#000" stroke-width="50" d="m 8400,8492 0,-51"/><path id="path7563" fill="none" stroke="#000" stroke-width="50" d="m 8400,8390 0,-51"/><path id="path7565" fill="none" stroke="#000" stroke-width="50" d="m 8400,8288 0,-51"/><path id="path7567" fill="none" stroke="#000" stroke-width="50" d="m 8400,8186 0,-51"/><path id="path7569" fill="none" stroke="#000" stroke-width="50" d="m 8400,8084 0,-51"/><path id="path7571" fill="none" stroke="#000" stroke-width="50" d="m 8400,7982 0,-51"/><path id="path7573" fill="none" stroke="#000" stroke-width="50" d="m 8400,7880 0,-51"/><path id="path7575" fill="none" stroke="#000" stroke-width="50" d="m 8400,7778 0,-51"/><path id="path7577" fill="none" stroke="#000" stroke-width="50" d="m 8400,7676 0,-51"/><path id="path7579" fill="none" stroke="#000" stroke-width="50" d="m 8400,7574 0,-51"/><path id="path7581" fill="none" stroke="#000" stroke-width="50" d="m 8400,7472 0,-51"/><path id="path7583" fill="none" stroke="#000" stroke-width="50" d="m 8400,7370 0,-51"/><path id="path7585" fill="none" stroke="#000" stroke-width="50" d="m 8400,7268 0,-51"/><path id="path7587" fill="none" stroke="#000" stroke-width="50" d="m 8400,7166 0,-51"/><path id="path7589" fill="none" stroke="#000" stroke-width="50" d="m 8400,7064 0,-51"/><path id="path7591" fill="none" stroke="#000" stroke-width="50" d="m 8400,6962 0,-51"/><path id="path7593" fill="none" stroke="#000" stroke-width="50" d="m 8400,6860 0,-51"/><path id="path7595" fill="none" stroke="#000" stroke-width="50" d="m 8400,6758 0,-51"/><path id="path7597" fill="none" stroke="#000" stroke-width="50" d="m 8400,6656 0,-51"/><path id="path7599" fill="none" stroke="#000" stroke-width="50" d="m 8400,6554 0,-51"/><path id="path7601" fill="none" stroke="#000" stroke-width="50" d="m 8400,6452 0,-51"/><path id="path7603" fill="none" stroke="#000" stroke-width="50" d="m 8400,6350 0,-51"/><path id="path7605" fill="none" stroke="#000" stroke-width="50" d="m 8400,6248 0,-51"/><path id="path7607" fill="none" stroke="#000" stroke-width="50" d="m 8400,6146 0,-51"/><path id="path7609" fill="none" stroke="#000" stroke-width="50" d="m 8400,6044 0,-51"/><path id="path7611" fill="none" stroke="#000" stroke-width="50" d="m 8400,5942 0,-51"/><path id="path7613" fill="none" stroke="#000" stroke-width="50" d="m 8400,5840 0,-51"/><path id="path7615" fill="none" stroke="#000" stroke-width="50" d="m 8400,5738 0,-51"/><path id="path7617" fill="none" stroke="#000" stroke-width="50" d="m 8400,5636 0,-51"/><path id="path7619" fill="none" stroke="#000" stroke-width="50" d="m 8400,5534 0,-51"/><path id="path7621" fill="none" stroke="#000" stroke-width="50" d="m 8400,5432 0,-51"/><path id="path7623" fill="none" stroke="#000" stroke-width="50" d="m 8400,5330 0,-51"/><path id="path7625" fill="none" stroke="#000" stroke-width="50" d="m 8400,5228 0,-51"/><path id="path7627" fill="none" stroke="#000" stroke-width="50" d="m 8400,5126 0,-51"/><path id="path7629" fill="none" stroke="#000" stroke-width="50" d="m 8400,5024 0,-51"/><path id="path7631" fill="none" stroke="#000" stroke-width="50" d="m 8400,4922 0,-51"/><path id="path7633" fill="none" stroke="#000" stroke-width="50" d="m 8400,4820 0,-51"/><path id="path7635" fill="none" stroke="#000" stroke-width="50" d="m 8400,4718 0,-51"/><path id="path7637" fill="none" stroke="#000" stroke-width="50" d="m 8400,4616 0,-51"/><path id="path7639" fill="none" stroke="#000" stroke-width="50" d="m 8400,4514 0,-51"/><path id="path7641" fill="none" stroke="#000" stroke-width="50" d="m 8400,4412 0,-51"/><path id="path7643" fill="none" stroke="#000" stroke-width="50" d="m 8400,4310 0,-51"/><path id="path7645" fill="none" stroke="#000" stroke-width="50" d="m 8400,4208 0,-51"/><path id="path7647" fill="none" stroke="#000" stroke-width="50" d="m 8400,4106 0,-51"/><path id="path7649" fill="none" stroke="#000" stroke-width="50" d="m 8400,4004 0,-51"/><path id="path7651" fill="none" stroke="#000" stroke-width="50" d="m 8400,3902 0,-51"/><path id="path7653" fill="none" stroke="#000" stroke-width="50" d="m 8400,3800 0,-51"/><path id="path7655" fill="none" stroke="#000" stroke-width="50" d="m 8400,3698 0,-51"/><path id="path7657" fill="none" stroke="#000" stroke-width="50" d="m 8400,3596 0,-51"/><path id="path7659" fill="none" stroke="#000" stroke-width="50" d="m 8400,3494 0,-51"/><path id="path7661" fill="none" stroke="#000" stroke-width="50" d="m 8400,3392 0,-51"/><path id="path7663" fill="none" stroke="#000" stroke-width="50" d="m 8400,3290 0,-51"/><path id="path7665" fill="none" stroke="#000" stroke-width="50" d="m 8400,3188 0,-51"/><path id="path7667" fill="none" stroke="#000" stroke-width="50" d="m 8400,3086 0,-51"/><path id="path7669" fill="none" stroke="#000" stroke-width="50" d="m 8400,2984 0,-51"/><path id="path7671" fill="none" stroke="#000" stroke-width="50" d="m 8400,2882 0,-51"/><path id="path7673" fill="none" stroke="#000" stroke-width="50" d="m 8400,2780 0,-51"/><path id="path7675" fill="none" stroke="#000" stroke-width="50" d="m 8400,2678 0,-51"/><path id="path7677" fill="none" stroke="#000" stroke-width="50" d="m 8400,2576 0,-51"/><path id="path7679" fill="none" stroke="#000" stroke-width="50" d="m 8400,2474 0,-51"/><path id="path7681" fill="none" stroke="#000" stroke-width="50" d="m 8400,2372 0,-51"/><path id="path7683" fill="none" stroke="#000" stroke-width="50" d="m 8400,2270 0,-51"/><path id="path7685" fill="none" stroke="#000" stroke-width="50" d="m 8400,2168 0,-51"/><path id="path7687" fill="none" stroke="#000" stroke-width="50" d="m 8400,2066 0,-51"/><path id="path7689" fill="none" stroke="#000" stroke-width="50" d="m 8400,1964 0,-51"/><path id="path7691" fill="none" stroke="#000" stroke-width="50" d="m 8400,1862 0,-51"/><path id="path7693" fill="none" stroke="#000" stroke-width="50" d="m 8400,1760 0,-51"/><path id="path7695" fill="none" stroke="#000" stroke-width="50" d="m 8400,1658 0,-51"/><path id="path7697" fill="none" stroke="#000" stroke-width="50" d="m 8400,1556 0,-51"/><path id="path7699" fill="none" stroke="#000" stroke-width="50" d="m 8400,1454 0,-51"/><path id="path7701" fill="none" stroke="#000" stroke-width="50" d="m 8400,1352 0,-51"/><path id="path7703" fill="none" stroke="#000" stroke-width="50" d="m 8400,1250 0,-51"/><path id="path7705" fill="none" stroke="#000" stroke-width="50" d="m 8400,1148 0,-48"/></g></g><g id="g7707" class="com.sun.star.drawing.LineShape"><g id="id8"><path id="path7710" fill="none" stroke="#000" stroke-width="50" d="m 11700,7900 -51,0"/><path id="path7712" fill="none" stroke="#000" stroke-width="50" d="m 11598,7900 -51,0"/><path id="path7714" fill="none" stroke="#000" stroke-width="50" d="m 11496,7900 -51,0"/><path id="path7716" fill="none" stroke="#000" stroke-width="50" d="m 11394,7900 -51,0"/><path id="path7718" fill="none" stroke="#000" stroke-width="50" d="m 11292,7900 -51,0"/><path id="path7720" fill="none" stroke="#000" stroke-width="50" d="m 11190,7900 -51,0"/><path id="path7722" fill="none" stroke="#000" stroke-width="50" d="m 11088,7900 -51,0"/><path id="path7724" fill="none" stroke="#000" stroke-width="50" d="m 10986,7900 -51,0"/><path id="path7726" fill="none" stroke="#000" stroke-width="50" d="m 10884,7900 -51,0"/><path id="path7728" fill="none" stroke="#000" stroke-width="50" d="m 10782,7900 -51,0"/><path id="path7730" fill="none" stroke="#000" stroke-width="50" d="m 10680,7900 -51,0"/><path id="path7732" fill="none" stroke="#000" stroke-width="50" d="m 10578,7900 -51,0"/><path id="path7734" fill="none" stroke="#000" stroke-width="50" d="m 10476,7900 -51,0"/><path id="path7736" fill="none" stroke="#000" stroke-width="50" d="m 10374,7900 -51,0"/><path id="path7738" fill="none" stroke="#000" stroke-width="50" d="m 10272,7900 -51,0"/><path id="path7740" fill="none" stroke="#000" stroke-width="50" d="m 10170,7900 -51,0"/><path id="path7742" fill="none" stroke="#000" stroke-width="50" d="m 10068,7900 -51,0"/><path id="path7744" fill="none" stroke="#000" stroke-width="50" d="m 9966,7900 -51,0"/><path id="path7746" fill="none" stroke="#000" stroke-width="50" d="m 9864,7900 -51,0"/><path id="path7748" fill="none" stroke="#000" stroke-width="50" d="m 9762,7900 -51,0"/><path id="path7750" fill="none" stroke="#000" stroke-width="50" d="m 9660,7900 -51,0"/><path id="path7752" fill="none" stroke="#000" stroke-width="50" d="m 9558,7900 -51,0"/><path id="path7754" fill="none" stroke="#000" stroke-width="50" d="m 9456,7900 -51,0"/><path id="path7756" fill="none" stroke="#000" stroke-width="50" d="m 9354,7900 -51,0"/><path id="path7758" fill="none" stroke="#000" stroke-width="50" d="m 9252,7900 -51,0"/><path id="path7760" fill="none" stroke="#000" stroke-width="50" d="m 9150,7900 -51,0"/><path id="path7762" fill="none" stroke="#000" stroke-width="50" d="m 9048,7900 -51,0"/><path id="path7764" fill="none" stroke="#000" stroke-width="50" d="m 8946,7900 -51,0"/><path id="path7766" fill="none" stroke="#000" stroke-width="50" d="m 8844,7900 -51,0"/><path id="path7768" fill="none" stroke="#000" stroke-width="50" d="m 8742,7900 -51,0"/><path id="path7770" fill="none" stroke="#000" stroke-width="50" d="m 8640,7900 -51,0"/><path id="path7772" fill="none" stroke="#000" stroke-width="50" d="m 8538,7900 -51,0"/><path id="path7774" fill="none" stroke="#000" stroke-width="50" d="m 8436,7900 -51,0"/><path id="path7776" fill="none" stroke="#000" stroke-width="50" d="m 8334,7900 -51,0"/><path id="path7778" fill="none" stroke="#000" stroke-width="50" d="m 8232,7900 -51,0"/><path id="path7780" fill="none" stroke="#000" stroke-width="50" d="m 8130,7900 -51,0"/><path id="path7782" fill="none" stroke="#000" stroke-width="50" d="m 8028,7900 -51,0"/><path id="path7784" fill="none" stroke="#000" stroke-width="50" d="m 7926,7900 -51,0"/><path id="path7786" fill="none" stroke="#000" stroke-width="50" d="m 7824,7900 -51,0"/><path id="path7788" fill="none" stroke="#000" stroke-width="50" d="m 7722,7900 -51,0"/><path id="path7790" fill="none" stroke="#000" stroke-width="50" d="m 7620,7900 -51,0"/><path id="path7792" fill="none" stroke="#000" stroke-width="50" d="m 7518,7900 -51,0"/><path id="path7794" fill="none" stroke="#000" stroke-width="50" d="m 7416,7900 -51,0"/><path id="path7796" fill="none" stroke="#000" stroke-width="50" d="m 7314,7900 -51,0"/><path id="path7798" fill="none" stroke="#000" stroke-width="50" d="m 7212,7900 -51,0"/><path id="path7800" fill="none" stroke="#000" stroke-width="50" d="m 7110,7900 -51,0"/><path id="path7802" fill="none" stroke="#000" stroke-width="50" d="m 7008,7900 -51,0"/><path id="path7804" fill="none" stroke="#000" stroke-width="50" d="m 6906,7900 -51,0"/><path id="path7806" fill="none" stroke="#000" stroke-width="50" d="m 6804,7900 -51,0"/><path id="path7808" fill="none" stroke="#000" stroke-width="50" d="m 6702,7900 -51,0"/><path id="path7810" fill="none" stroke="#000" stroke-width="50" d="m 6600,7900 -51,0"/><path id="path7812" fill="none" stroke="#000" stroke-width="50" d="m 6498,7900 -51,0"/><path id="path7814" fill="none" stroke="#000" stroke-width="50" d="m 6396,7900 -51,0"/><path id="path7816" fill="none" stroke="#000" stroke-width="50" d="m 6294,7900 -51,0"/><path id="path7818" fill="none" stroke="#000" stroke-width="50" d="m 6192,7900 -51,0"/><path id="path7820" fill="none" stroke="#000" stroke-width="50" d="m 6090,7900 -51,0"/><path id="path7822" fill="none" stroke="#000" stroke-width="50" d="m 5988,7900 -51,0"/><path id="path7824" fill="none" stroke="#000" stroke-width="50" d="m 5886,7900 -51,0"/><path id="path7826" fill="none" stroke="#000" stroke-width="50" d="m 5784,7900 -51,0"/><path id="path7828" fill="none" stroke="#000" stroke-width="50" d="m 5682,7900 -51,0"/><path id="path7830" fill="none" stroke="#000" stroke-width="50" d="m 5580,7900 -51,0"/><path id="path7832" fill="none" stroke="#000" stroke-width="50" d="m 5478,7900 -51,0"/><path id="path7834" fill="none" stroke="#000" stroke-width="50" d="m 5376,7900 -51,0"/><path id="path7836" fill="none" stroke="#000" stroke-width="50" d="m 5274,7900 -51,0"/><path id="path7838" fill="none" stroke="#000" stroke-width="50" d="m 5172,7900 -51,0"/><path id="path7840" fill="none" stroke="#000" stroke-width="50" d="m 5070,7900 -51,0"/><path id="path7842" fill="none" stroke="#000" stroke-width="50" d="m 4968,7900 -51,0"/></g></g><g id="g7844" class="com.sun.star.drawing.TextShape"><g id="id9"><text id="text7847" class="TextShape"><tspan id="tspan7849" class="TextParagraph" font-family="Arial, sans-serif" font-size="388" font-weight="400"><tspan id="tspan7851" x="5791" y="8568" class="TextPosition"><tspan id="tspan7853" fill="#000" stroke="none">Variables</tspan></tspan></tspan></text></g></g><g id="g7855" class="com.sun.star.drawing.TextShape"><g id="id10"><text id="text7858" class="TextShape"><tspan id="tspan7860" class="TextParagraph" font-family="Arial, sans-serif" font-size="388" font-weight="400"><tspan id="tspan7862" x="9691" y="8569" class="TextPosition"><tspan id="tspan7864" fill="#000" stroke="none">Values</tspan></tspan></tspan></text></g></g><g id="g7866" class="com.sun.star.drawing.LineShape"><g id="id11"><path id="path7869" fill="none" stroke="#000" stroke-width="50" d="m 11700,6300 -51,0"/><path id="path7871" fill="none" stroke="#000" stroke-width="50" d="m 11598,6300 -51,0"/><path id="path7873" fill="none" stroke="#000" stroke-width="50" d="m 11496,6300 -51,0"/><path id="path7875" fill="none" stroke="#000" stroke-width="50" d="m 11394,6300 -51,0"/><path id="path7877" fill="none" stroke="#000" stroke-width="50" d="m 11292,6300 -51,0"/><path id="path7879" fill="none" stroke="#000" stroke-width="50" d="m 11190,6300 -51,0"/><path id="path7881" fill="none" stroke="#000" stroke-width="50" d="m 11088,6300 -51,0"/><path id="path7883" fill="none" stroke="#000" stroke-width="50" d="m 10986,6300 -51,0"/><path id="path7885" fill="none" stroke="#000" stroke-width="50" d="m 10884,6300 -51,0"/><path id="path7887" fill="none" stroke="#000" stroke-width="50" d="m 10782,6300 -51,0"/><path id="path7889" fill="none" stroke="#000" stroke-width="50" d="m 10680,6300 -51,0"/><path id="path7891" fill="none" stroke="#000" stroke-width="50" d="m 10578,6300 -51,0"/><path id="path7893" fill="none" stroke="#000" stroke-width="50" d="m 10476,6300 -51,0"/><path id="path7895" fill="none" stroke="#000" stroke-width="50" d="m 10374,6300 -51,0"/><path id="path7897" fill="none" stroke="#000" stroke-width="50" d="m 10272,6300 -51,0"/><path id="path7899" fill="none" stroke="#000" stroke-width="50" d="m 10170,6300 -51,0"/><path id="path7901" fill="none" stroke="#000" stroke-width="50" d="m 10068,6300 -51,0"/><path id="path7903" fill="none" stroke="#000" stroke-width="50" d="m 9966,6300 -51,0"/><path id="path7905" fill="none" stroke="#000" stroke-width="50" d="m 9864,6300 -51,0"/><path id="path7907" fill="none" stroke="#000" stroke-width="50" d="m 9762,6300 -51,0"/><path id="path7909" fill="none" stroke="#000" stroke-width="50" d="m 9660,6300 -51,0"/><path id="path7911" fill="none" stroke="#000" stroke-width="50" d="m 9558,6300 -51,0"/><path id="path7913" fill="none" stroke="#000" stroke-width="50" d="m 9456,6300 -51,0"/><path id="path7915" fill="none" stroke="#000" stroke-width="50" d="m 9354,6300 -51,0"/><path id="path7917" fill="none" stroke="#000" stroke-width="50" d="m 9252,6300 -51,0"/><path id="path7919" fill="none" stroke="#000" stroke-width="50" d="m 9150,6300 -51,0"/><path id="path7921" fill="none" stroke="#000" stroke-width="50" d="m 9048,6300 -51,0"/><path id="path7923" fill="none" stroke="#000" stroke-width="50" d="m 8946,6300 -51,0"/><path id="path7925" fill="none" stroke="#000" stroke-width="50" d="m 8844,6300 -51,0"/><path id="path7927" fill="none" stroke="#000" stroke-width="50" d="m 8742,6300 -51,0"/><path id="path7929" fill="none" stroke="#000" stroke-width="50" d="m 8640,6300 -51,0"/><path id="path7931" fill="none" stroke="#000" stroke-width="50" d="m 8538,6300 -51,0"/><path id="path7933" fill="none" stroke="#000" stroke-width="50" d="m 8436,6300 -51,0"/><path id="path7935" fill="none" stroke="#000" stroke-width="50" d="m 8334,6300 -51,0"/><path id="path7937" fill="none" stroke="#000" stroke-width="50" d="m 8232,6300 -51,0"/><path id="path7939" fill="none" stroke="#000" stroke-width="50" d="m 8130,6300 -51,0"/><path id="path7941" fill="none" stroke="#000" stroke-width="50" d="m 8028,6300 -51,0"/><path id="path7943" fill="none" stroke="#000" stroke-width="50" d="m 7926,6300 -51,0"/><path id="path7945" fill="none" stroke="#000" stroke-width="50" d="m 7824,6300 -51,0"/><path id="path7947" fill="none" stroke="#000" stroke-width="50" d="m 7722,6300 -51,0"/><path id="path7949" fill="none" stroke="#000" stroke-width="50" d="m 7620,6300 -51,0"/><path id="path7951" fill="none" stroke="#000" stroke-width="50" d="m 7518,6300 -51,0"/><path id="path7953" fill="none" stroke="#000" stroke-width="50" d="m 7416,6300 -51,0"/><path id="path7955" fill="none" stroke="#000" stroke-width="50" d="m 7314,6300 -51,0"/><path id="path7957" fill="none" stroke="#000" stroke-width="50" d="m 7212,6300 -51,0"/><path id="path7959" fill="none" stroke="#000" stroke-width="50" d="m 7110,6300 -51,0"/><path id="path7961" fill="none" stroke="#000" stroke-width="50" d="m 7008,6300 -51,0"/><path id="path7963" fill="none" stroke="#000" stroke-width="50" d="m 6906,6300 -51,0"/><path id="path7965" fill="none" stroke="#000" stroke-width="50" d="m 6804,6300 -51,0"/><path id="path7967" fill="none" stroke="#000" stroke-width="50" d="m 6702,6300 -51,0"/><path id="path7969" fill="none" stroke="#000" stroke-width="50" d="m 6600,6300 -51,0"/><path id="path7971" fill="none" stroke="#000" stroke-width="50" d="m 6498,6300 -51,0"/><path id="path7973" fill="none" stroke="#000" stroke-width="50" d="m 6396,6300 -51,0"/><path id="path7975" fill="none" stroke="#000" stroke-width="50" d="m 6294,6300 -51,0"/><path id="path7977" fill="none" stroke="#000" stroke-width="50" d="m 6192,6300 -51,0"/><path id="path7979" fill="none" stroke="#000" stroke-width="50" d="m 6090,6300 -51,0"/><path id="path7981" fill="none" stroke="#000" stroke-width="50" d="m 5988,6300 -51,0"/><path id="path7983" fill="none" stroke="#000" stroke-width="50" d="m 5886,6300 -51,0"/><path id="path7985" fill="none" stroke="#000" stroke-width="50" d="m 5784,6300 -51,0"/><path id="path7987" fill="none" stroke="#000" stroke-width="50" d="m 5682,6300 -51,0"/><path id="path7989" fill="none" stroke="#000" stroke-width="50" d="m 5580,6300 -51,0"/><path id="path7991" fill="none" stroke="#000" stroke-width="50" d="m 5478,6300 -51,0"/><path id="path7993" fill="none" stroke="#000" stroke-width="50" d="m 5376,6300 -51,0"/><path id="path7995" fill="none" stroke="#000" stroke-width="50" d="m 5274,6300 -51,0"/><path id="path7997" fill="none" stroke="#000" stroke-width="50" d="m 5172,6300 -51,0"/><path id="path7999" fill="none" stroke="#000" stroke-width="50" d="m 5070,6300 -51,0"/><path id="path8001" fill="none" stroke="#000" stroke-width="50" d="m 4968,6300 -51,0"/></g></g><g id="g8003" class="com.sun.star.drawing.CustomShape"><g id="id12"><path id="path8006" fill="none" stroke="#000" stroke-width="50" d="m 4559,3700 c -30,0 -61,95 -61,191 l 0,767 c 0,96 -30,192 -60,192 30,0 60,96 60,192 l 0,767 c 0,96 31,192 61,192"/><path id="path8008" fill="none" stroke="#000" stroke-width="50" d="m 4438,3700 0,0 z"/><path id="path8010" fill="none" stroke="#000" stroke-width="50" d="m 4560,6001 0,0 z"/></g></g><g id="g8012" class="com.sun.star.drawing.TextShape"><g id="id13"><path id="path8015" fill="silver" stroke="none" d="m 6629,5601 -683,0 0,-683 1366,0 0,683 -683,0 z"/><text id="text8017" class="TextShape"><tspan id="tspan8019" class="TextParagraph" font-family="Arial, sans-serif" font-size="388" font-weight="400"><tspan id="tspan8021" x="6196" y="5394" class="TextPosition"><tspan id="tspan8023" fill="#000" stroke="none">temp</tspan></tspan></tspan></text></g></g><g id="g8025" class="com.sun.star.drawing.LineShape"><g id="id14"><path id="path8028" fill="none" stroke="#000" d="M 7600,5300 9264,6631"/><path id="path8030" fill="#000" stroke="none" d="m 9600,6900 -258,-398 -187,234 445,164 z"/></g></g><g id="g8032" class="com.sun.star.drawing.TextShape"><g id="id15"><path id="path8035" fill="silver" stroke="none" d="m 6534,4502 -888,0 0,-683 1776,0 0,683 -888,0 z"/><text id="text8037" class="TextShape"><tspan id="tspan8039" class="TextParagraph" font-family="Arial, sans-serif" font-size="388" font-weight="400"><tspan id="tspan8041" x="5896" y="4295" class="TextPosition"><tspan id="tspan8043" fill="#000" stroke="none">temp_k</tspan></tspan></tspan></text></g></g><g id="g8045" class="com.sun.star.drawing.TextShape"><g id="id16"><path id="path8048" fill="none" stroke="#000" stroke-width="50" d="m 10269,4501 -869,0 0,-733 1737,0 0,733 -868,0 z"/><text id="text8050" class="TextShape"><tspan id="tspan8052" class="TextParagraph" font-family="Arial, sans-serif" font-size="388" font-weight="400"><tspan id="tspan8054" x="9675" y="4269" class="TextPosition"><tspan id="tspan8056" fill="#000" stroke="none">273.15</tspan></tspan></tspan></text></g></g><g id="g8058" class="com.sun.star.drawing.LineShape"><g id="id17"><path id="path8061" fill="none" stroke="#000" d="m 7600,4200 1270,0"/><path id="path8063" fill="#000" stroke="none" d="m 9300,4200 -450,-150 0,300 450,-150 z"/></g></g><g id="g8065" class="com.sun.star.drawing.TextShape"><g id="id18"><text id="text8068" class="TextShape"><tspan id="tspan8070" class="TextParagraph" font-family="Arial, sans-serif" font-size="388" font-style="italic" font-weight="400"><tspan id="tspan8072" x="1391" y="2369" class="TextPosition"><tspan id="tspan8074" fill="#000" stroke="none">kelvin_to_celsius</tspan></tspan></tspan></text></g></g><g id="g8076" class="com.sun.star.drawing.LineShape"><g id="id19"><path id="path8079" fill="none" stroke="#000" stroke-width="50" d="m 11700,3200 -51,0"/><path id="path8081" fill="none" stroke="#000" stroke-width="50" d="m 11598,3200 -51,0"/><path id="path8083" fill="none" stroke="#000" stroke-width="50" d="m 11496,3200 -51,0"/><path id="path8085" fill="none" stroke="#000" stroke-width="50" d="m 11394,3200 -51,0"/><path id="path8087" fill="none" stroke="#000" stroke-width="50" d="m 11292,3200 -51,0"/><path id="path8089" fill="none" stroke="#000" stroke-width="50" d="m 11190,3200 -51,0"/><path id="path8091" fill="none" stroke="#000" stroke-width="50" d="m 11088,3200 -51,0"/><path id="path8093" fill="none" stroke="#000" stroke-width="50" d="m 10986,3200 -51,0"/><path id="path8095" fill="none" stroke="#000" stroke-width="50" d="m 10884,3200 -51,0"/><path id="path8097" fill="none" stroke="#000" stroke-width="50" d="m 10782,3200 -51,0"/><path id="path8099" fill="none" stroke="#000" stroke-width="50" d="m 10680,3200 -51,0"/><path id="path8101" fill="none" stroke="#000" stroke-width="50" d="m 10578,3200 -51,0"/><path id="path8103" fill="none" stroke="#000" stroke-width="50" d="m 10476,3200 -51,0"/><path id="path8105" fill="none" stroke="#000" stroke-width="50" d="m 10374,3200 -51,0"/><path id="path8107" fill="none" stroke="#000" stroke-width="50" d="m 10272,3200 -51,0"/><path id="path8109" fill="none" stroke="#000" stroke-width="50" d="m 10170,3200 -51,0"/><path id="path8111" fill="none" stroke="#000" stroke-width="50" d="m 10068,3200 -51,0"/><path id="path8113" fill="none" stroke="#000" stroke-width="50" d="m 9966,3200 -51,0"/><path id="path8115" fill="none" stroke="#000" stroke-width="50" d="m 9864,3200 -51,0"/><path id="path8117" fill="none" stroke="#000" stroke-width="50" d="m 9762,3200 -51,0"/><path id="path8119" fill="none" stroke="#000" stroke-width="50" d="m 9660,3200 -51,0"/><path id="path8121" fill="none" stroke="#000" stroke-width="50" d="m 9558,3200 -51,0"/><path id="path8123" fill="none" stroke="#000" stroke-width="50" d="m 9456,3200 -51,0"/><path id="path8125" fill="none" stroke="#000" stroke-width="50" d="m 9354,3200 -51,0"/><path id="path8127" fill="none" stroke="#000" stroke-width="50" d="m 9252,3200 -51,0"/><path id="path8129" fill="none" stroke="#000" stroke-width="50" d="m 9150,3200 -51,0"/><path id="path8131" fill="none" stroke="#000" stroke-width="50" d="m 9048,3200 -51,0"/><path id="path8133" fill="none" stroke="#000" stroke-width="50" d="m 8946,3200 -51,0"/><path id="path8135" fill="none" stroke="#000" stroke-width="50" d="m 8844,3200 -51,0"/><path id="path8137" fill="none" stroke="#000" stroke-width="50" d="m 8742,3200 -51,0"/><path id="path8139" fill="none" stroke="#000" stroke-width="50" d="m 8640,3200 -51,0"/><path id="path8141" fill="none" stroke="#000" stroke-width="50" d="m 8538,3200 -51,0"/><path id="path8143" fill="none" stroke="#000" stroke-width="50" d="m 8436,3200 -51,0"/><path id="path8145" fill="none" stroke="#000" stroke-width="50" d="m 8334,3200 -51,0"/><path id="path8147" fill="none" stroke="#000" stroke-width="50" d="m 8232,3200 -51,0"/><path id="path8149" fill="none" stroke="#000" stroke-width="50" d="m 8130,3200 -51,0"/><path id="path8151" fill="none" stroke="#000" stroke-width="50" d="m 8028,3200 -51,0"/><path id="path8153" fill="none" stroke="#000" stroke-width="50" d="m 7926,3200 -51,0"/><path id="path8155" fill="none" stroke="#000" stroke-width="50" d="m 7824,3200 -51,0"/><path id="path8157" fill="none" stroke="#000" stroke-width="50" d="m 7722,3200 -51,0"/><path id="path8159" fill="none" stroke="#000" stroke-width="50" d="m 7620,3200 -51,0"/><path id="path8161" fill="none" stroke="#000" stroke-width="50" d="m 7518,3200 -51,0"/><path id="path8163" fill="none" stroke="#000" stroke-width="50" d="m 7416,3200 -51,0"/><path id="path8165" fill="none" stroke="#000" stroke-width="50" d="m 7314,3200 -51,0"/><path id="path8167" fill="none" stroke="#000" stroke-width="50" d="m 7212,3200 -51,0"/><path id="path8169" fill="none" stroke="#000" stroke-width="50" d="m 7110,3200 -51,0"/><path id="path8171" fill="none" stroke="#000" stroke-width="50" d="m 7008,3200 -51,0"/><path id="path8173" fill="none" stroke="#000" stroke-width="50" d="m 6906,3200 -51,0"/><path id="path8175" fill="none" stroke="#000" stroke-width="50" d="m 6804,3200 -51,0"/><path id="path8177" fill="none" stroke="#000" stroke-width="50" d="m 6702,3200 -51,0"/><path id="path8179" fill="none" stroke="#000" stroke-width="50" d="m 6600,3200 -51,0"/><path id="path8181" fill="none" stroke="#000" stroke-width="50" d="m 6498,3200 -51,0"/><path id="path8183" fill="none" stroke="#000" stroke-width="50" d="m 6396,3200 -51,0"/><path id="path8185" fill="none" stroke="#000" stroke-width="50" d="m 6294,3200 -51,0"/><path id="path8187" fill="none" stroke="#000" stroke-width="50" d="m 6192,3200 -51,0"/><path id="path8189" fill="none" stroke="#000" stroke-width="50" d="m 6090,3200 -51,0"/><path id="path8191" fill="none" stroke="#000" stroke-width="50" d="m 5988,3200 -51,0"/><path id="path8193" fill="none" stroke="#000" stroke-width="50" d="m 5886,3200 -51,0"/><path id="path8195" fill="none" stroke="#000" stroke-width="50" d="m 5784,3200 -51,0"/><path id="path8197" fill="none" stroke="#000" stroke-width="50" d="m 5682,3200 -51,0"/><path id="path8199" fill="none" stroke="#000" stroke-width="50" d="m 5580,3200 -51,0"/><path id="path8201" fill="none" stroke="#000" stroke-width="50" d="m 5478,3200 -51,0"/><path id="path8203" fill="none" stroke="#000" stroke-width="50" d="m 5376,3200 -51,0"/><path id="path8205" fill="none" stroke="#000" stroke-width="50" d="m 5274,3200 -51,0"/><path id="path8207" fill="none" stroke="#000" stroke-width="50" d="m 5172,3200 -51,0"/><path id="path8209" fill="none" stroke="#000" stroke-width="50" d="m 5070,3200 -51,0"/><path id="path8211" fill="none" stroke="#000" stroke-width="50" d="m 4968,3200 -51,0"/></g></g><g id="g8213" class="com.sun.star.drawing.CustomShape"><g id="id20"><path id="path8216" fill="none" stroke="#000" stroke-width="50" d="m 4559,1600 c -30,0 -61,54 -61,108 l 0,434 c 0,54 -30,108 -60,108 30,0 60,54 60,108 l 0,434 c 0,54 31,109 61,109"/><path id="path8218" fill="none" stroke="#000" stroke-width="50" d="m 4438,1600 0,0 z"/><path id="path8220" fill="none" stroke="#000" stroke-width="50" d="m 4560,2901 0,0 z"/></g></g><g id="g8222" class="com.sun.star.drawing.TextShape"><g id="id21"><path id="path8225" fill="silver" stroke="none" d="m 6629,2501 -683,0 0,-683 1366,0 0,683 -683,0 z"/><text id="text8227" class="TextShape"><tspan id="tspan8229" class="TextParagraph" font-family="Arial, sans-serif" font-size="388" font-weight="400"><tspan id="tspan8231" x="6196" y="2294" class="TextPosition"><tspan id="tspan8233" fill="#000" stroke="none">temp</tspan></tspan></tspan></text></g></g><g id="g8235" class="com.sun.star.drawing.LineShape"><g id="id22"><path id="path8238" fill="none" stroke="#000" d="M 7600,2200 8886,3406"/><path id="path8240" fill="#000" stroke="none" d="m 9200,3700 -226,-417 -205,219 431,198 z"/></g></g></g></g></g></g></svg>