<svg xmlns="http://www.w3.org/2000/svg" xmlns:ooo="http://xml.openoffice.org/svg/export" xmlns:svg="http://www.w3.org/2000/svg" id="svg8931" width="354.911" height="278.15" fill-rule="evenodd" stroke-linejoin="round" stroke-width="28.222" clip-path="url(#presentation_clip_path)" preserveAspectRatio="xMidYMid" version="1.2" viewBox="0 0 10016.381 7850" xml:space="preserve"><metadata id="metadata9579"/><defs id="defs8933" class="ClipPathGroup"><clipPath id="presentation_clip_path" clipPathUnits="userSpaceOnUse"><rect id="rect8936" width="21590" height="27940" x="0" y="0"/></clipPath></defs><defs id="defs8942" class="EmbeddedBulletChars"><g id="bullet-char-template(57356)" transform="scale(4.8828125e-4,-4.8828125e-4)"><path id="path8945" d="M 580,1141 1163,571 580,0 -4,571 580,1141 z"/></g><g id="bullet-char-template(57354)" transform="scale(4.8828125e-4,-4.8828125e-4)"><path id="path8948" d="m 8,1128 1129,0 L 1137,0 8,0 8,1128 z"/></g><g id="bullet-char-template(10146)" transform="scale(4.8828125e-4,-4.8828125e-4)"><path id="path8951" d="M 174,0 602,739 174,1481 1456,739 174,0 z m 1184,739 -1049,607 350,-607 699,0 z"/></g><g id="bullet-char-template(10132)" transform="scale(4.8828125e-4,-4.8828125e-4)"><path id="path8954" d="M 2015,739 1276,0 717,0 l 543,543 -1086,0 0,393 1086,0 -543,545 557,0 741,-742 z"/></g><g id="bullet-char-template(10007)" transform="scale(4.8828125e-4,-4.8828125e-4)"><path id="path8957" d="m 0,-2 c -7,16 -16,29 -25,39 l 381,530 c -94,256 -141,385 -141,387 0,25 13,38 40,38 9,0 21,-2 34,-5 21,4 42,12 65,25 l 27,-13 111,-251 280,301 64,-25 24,25 c 21,-10 41,-24 62,-43 C 886,937 835,863 770,784 769,783 710,716 594,584 L 774,223 c 0,-27 -21,-55 -63,-84 l 16,-20 C 717,90 699,76 672,76 641,76 570,178 457,381 L 164,-76 c -22,-34 -53,-51 -92,-51 -42,0 -63,17 -64,51 -7,9 -10,24 -10,44 0,9 1,19 2,30 z"/></g><g id="bullet-char-template(10004)" transform="scale(4.8828125e-4,-4.8828125e-4)"><path id="path8960" d="M 285,-33 C 182,-33 111,30 74,156 52,228 41,333 41,471 c 0,78 14,145 41,201 34,71 87,106 158,106 53,0 88,-31 106,-94 l 23,-176 c 8,-64 28,-97 59,-98 l 735,706 c 11,11 33,17 66,17 42,0 63,-15 63,-46 l 0,-122 c 0,-36 -10,-64 -30,-84 L 442,47 C 390,-6 338,-33 285,-33 z"/></g><g id="bullet-char-template(9679)" transform="scale(4.8828125e-4,-4.8828125e-4)"><path id="path8963" d="M 813,0 C 632,0 489,54 383,161 276,268 223,411 223,592 c 0,181 53,324 160,431 106,107 249,161 430,161 179,0 323,-54 432,-161 108,-107 162,-251 162,-431 0,-180 -54,-324 -162,-431 C 1136,54 992,0 813,0 z"/></g><g id="bullet-char-template(8226)" transform="scale(4.8828125e-4,-4.8828125e-4)"><path id="path8966" d="m 346,457 c -73,0 -137,26 -191,78 -54,51 -81,114 -81,188 0,73 27,136 81,188 54,52 118,78 191,78 73,0 134,-26 185,-79 51,-51 77,-114 77,-187 0,-75 -25,-137 -76,-188 -50,-52 -112,-78 -186,-78 z"/></g><g id="bullet-char-template(8211)" transform="scale(4.8828125e-4,-4.8828125e-4)"><path id="path8969" d="m -4,459 1139,0 0,147 -1139,0 0,-147 z"/></g></defs><g id="g8978" class="SlideGroup" transform="translate(-1308.6191,-1075)"><g id="g8980"><g id="id1" class="Slide" clip-path="url(#presentation_clip_path)"><g id="g8983" class="Page"><g id="g8985" class="com.sun.star.drawing.TextShape"><g id="id3"><text id="text8988" class="TextShape"><tspan id="tspan8990" class="TextParagraph" font-family="Arial, sans-serif" font-size="388" font-style="italic" font-weight="400"><tspan id="tspan8992" x="1291" y="4369" class="TextPosition"><tspan id="tspan8994" fill="#000" stroke="none">fahr_to_celsius</tspan></tspan></tspan></text></g></g><g id="g8996" class="com.sun.star.drawing.LineShape"><g id="id4"><path id="path8999" fill="none" stroke="#000" d="m 7300,7100 1470,0"/><path id="path9001" fill="#000" stroke="none" d="m 9200,7100 -450,-150 0,300 450,-150 z"/></g></g><g id="g9003" class="com.sun.star.drawing.TextShape"><g id="id5"><path id="path9006" fill="silver" stroke="none" d="m 6223,7500 -878,0 0,-683 1755,0 0,683 -877,0 z"/><text id="text9008" class="TextShape"><tspan id="tspan9010" class="TextParagraph" font-family="Arial, sans-serif" font-size="388" font-weight="400"><tspan id="tspan9012" x="5595" y="7293" class="TextPosition"><tspan id="tspan9014" fill="#000" stroke="none">original</tspan></tspan></tspan></text></g></g><g id="g9016" class="com.sun.star.drawing.TextShape"><g id="id6"><path id="path9019" fill="none" stroke="#000" stroke-width="50" d="m 9892,7500 -492,0 0,-733 984,0 0,733 -492,0 z"/><text id="text9021" class="TextShape"><tspan id="tspan9023" class="TextParagraph" font-family="Arial, sans-serif" font-size="388" font-weight="400"><tspan id="tspan9025" x="9675" y="7268" class="TextPosition"><tspan id="tspan9027" fill="#000" stroke="none">32</tspan></tspan></tspan></text></g></g><g id="g9029" class="com.sun.star.drawing.LineShape"><g id="id7"><path id="path9032" fill="none" stroke="#000" stroke-width="50" d="m 8000,8900 0,-51"/><path id="path9034" fill="none" stroke="#000" stroke-width="50" d="m 8000,8798 0,-51"/><path id="path9036" fill="none" stroke="#000" stroke-width="50" d="m 8000,8696 0,-51"/><path id="path9038" fill="none" stroke="#000" stroke-width="50" d="m 8000,8594 0,-51"/><path id="path9040" fill="none" stroke="#000" stroke-width="50" d="m 8000,8492 0,-51"/><path id="path9042" fill="none" stroke="#000" stroke-width="50" d="m 8000,8390 0,-51"/><path id="path9044" fill="none" stroke="#000" stroke-width="50" d="m 8000,8288 0,-51"/><path id="path9046" fill="none" stroke="#000" stroke-width="50" d="m 8000,8186 0,-51"/><path id="path9048" fill="none" stroke="#000" stroke-width="50" d="m 8000,8084 0,-51"/><path id="path9050" fill="none" stroke="#000" stroke-width="50" d="m 8000,7982 0,-51"/><path id="path9052" fill="none" stroke="#000" stroke-width="50" d="m 8000,7880 0,-51"/><path id="path9054" fill="none" stroke="#000" stroke-width="50" d="m 8000,7778 0,-51"/><path id="path9056" fill="none" stroke="#000" stroke-width="50" d="m 8000,7676 0,-51"/><path id="path9058" fill="none" stroke="#000" stroke-width="50" d="m 8000,7574 0,-51"/><path id="path9060" fill="none" stroke="#000" stroke-width="50" d="m 8000,7472 0,-51"/><path id="path9062" fill="none" stroke="#000" stroke-width="50" d="m 8000,7370 0,-51"/><path id="path9064" fill="none" stroke="#000" stroke-width="50" d="m 8000,7268 0,-51"/><path id="path9066" fill="none" stroke="#000" stroke-width="50" d="m 8000,7166 0,-51"/><path id="path9068" fill="none" stroke="#000" stroke-width="50" d="m 8000,7064 0,-51"/><path id="path9070" fill="none" stroke="#000" stroke-width="50" d="m 8000,6962 0,-51"/><path id="path9072" fill="none" stroke="#000" stroke-width="50" d="m 8000,6860 0,-51"/><path id="path9074" fill="none" stroke="#000" stroke-width="50" d="m 8000,6758 0,-51"/><path id="path9076" fill="none" stroke="#000" stroke-width="50" d="m 8000,6656 0,-51"/><path id="path9078" fill="none" stroke="#000" stroke-width="50" d="m 8000,6554 0,-51"/><path id="path9080" fill="none" stroke="#000" stroke-width="50" d="m 8000,6452 0,-51"/><path id="path9082" fill="none" stroke="#000" stroke-width="50" d="m 8000,6350 0,-51"/><path id="path9084" fill="none" stroke="#000" stroke-width="50" d="m 8000,6248 0,-51"/><path id="path9086" fill="none" stroke="#000" stroke-width="50" d="m 8000,6146 0,-51"/><path id="path9088" fill="none" stroke="#000" stroke-width="50" d="m 8000,6044 0,-51"/><path id="path9090" fill="none" stroke="#000" stroke-width="50" d="m 8000,5942 0,-51"/><path id="path9092" fill="none" stroke="#000" stroke-width="50" d="m 8000,5840 0,-51"/><path id="path9094" fill="none" stroke="#000" stroke-width="50" d="m 8000,5738 0,-51"/><path id="path9096" fill="none" stroke="#000" stroke-width="50" d="m 8000,5636 0,-51"/><path id="path9098" fill="none" stroke="#000" stroke-width="50" d="m 8000,5534 0,-51"/><path id="path9100" fill="none" stroke="#000" stroke-width="50" d="m 8000,5432 0,-51"/><path id="path9102" fill="none" stroke="#000" stroke-width="50" d="m 8000,5330 0,-51"/><path id="path9104" fill="none" stroke="#000" stroke-width="50" d="m 8000,5228 0,-51"/><path id="path9106" fill="none" stroke="#000" stroke-width="50" d="m 8000,5126 0,-51"/><path id="path9108" fill="none" stroke="#000" stroke-width="50" d="m 8000,5024 0,-51"/><path id="path9110" fill="none" stroke="#000" stroke-width="50" d="m 8000,4922 0,-51"/><path id="path9112" fill="none" stroke="#000" stroke-width="50" d="m 8000,4820 0,-51"/><path id="path9114" fill="none" stroke="#000" stroke-width="50" d="m 8000,4718 0,-51"/><path id="path9116" fill="none" stroke="#000" stroke-width="50" d="m 8000,4616 0,-51"/><path id="path9118" fill="none" stroke="#000" stroke-width="50" d="m 8000,4514 0,-51"/><path id="path9120" fill="none" stroke="#000" stroke-width="50" d="m 8000,4412 0,-51"/><path id="path9122" fill="none" stroke="#000" stroke-width="50" d="m 8000,4310 0,-51"/><path id="path9124" fill="none" stroke="#000" stroke-width="50" d="m 8000,4208 0,-51"/><path id="path9126" fill="none" stroke="#000" stroke-width="50" d="m 8000,4106 0,-51"/><path id="path9128" fill="none" stroke="#000" stroke-width="50" d="m 8000,4004 0,-51"/><path id="path9130" fill="none" stroke="#000" stroke-width="50" d="m 8000,3902 0,-51"/><path id="path9132" fill="none" stroke="#000" stroke-width="50" d="m 8000,3800 0,-51"/><path id="path9134" fill="none" stroke="#000" stroke-width="50" d="m 8000,3698 0,-51"/><path id="path9136" fill="none" stroke="#000" stroke-width="50" d="m 8000,3596 0,-51"/><path id="path9138" fill="none" stroke="#000" stroke-width="50" d="m 8000,3494 0,-51"/><path id="path9140" fill="none" stroke="#000" stroke-width="50" d="m 8000,3392 0,-51"/><path id="path9142" fill="none" stroke="#000" stroke-width="50" d="m 8000,3290 0,-51"/><path id="path9144" fill="none" stroke="#000" stroke-width="50" d="m 8000,3188 0,-51"/><path id="path9146" fill="none" stroke="#000" stroke-width="50" d="m 8000,3086 0,-51"/><path id="path9148" fill="none" stroke="#000" stroke-width="50" d="m 8000,2984 0,-51"/><path id="path9150" fill="none" stroke="#000" stroke-width="50" d="m 8000,2882 0,-51"/><path id="path9152" fill="none" stroke="#000" stroke-width="50" d="m 8000,2780 0,-51"/><path id="path9154" fill="none" stroke="#000" stroke-width="50" d="m 8000,2678 0,-51"/><path id="path9156" fill="none" stroke="#000" stroke-width="50" d="m 8000,2576 0,-51"/><path id="path9158" fill="none" stroke="#000" stroke-width="50" d="m 8000,2474 0,-51"/><path id="path9160" fill="none" stroke="#000" stroke-width="50" d="m 8000,2372 0,-51"/><path id="path9162" fill="none" stroke="#000" stroke-width="50" d="m 8000,2270 0,-51"/><path id="path9164" fill="none" stroke="#000" stroke-width="50" d="m 8000,2168 0,-51"/><path id="path9166" fill="none" stroke="#000" stroke-width="50" d="m 8000,2066 0,-51"/><path id="path9168" fill="none" stroke="#000" stroke-width="50" d="m 8000,1964 0,-51"/><path id="path9170" fill="none" stroke="#000" stroke-width="50" d="m 8000,1862 0,-51"/><path id="path9172" fill="none" stroke="#000" stroke-width="50" d="m 8000,1760 0,-51"/><path id="path9174" fill="none" stroke="#000" stroke-width="50" d="m 8000,1658 0,-51"/><path id="path9176" fill="none" stroke="#000" stroke-width="50" d="m 8000,1556 0,-51"/><path id="path9178" fill="none" stroke="#000" stroke-width="50" d="m 8000,1454 0,-51"/><path id="path9180" fill="none" stroke="#000" stroke-width="50" d="m 8000,1352 0,-51"/><path id="path9182" fill="none" stroke="#000" stroke-width="50" d="m 8000,1250 0,-51"/><path id="path9184" fill="none" stroke="#000" stroke-width="50" d="m 8000,1148 0,-48"/></g></g><g id="g9186" class="com.sun.star.drawing.LineShape"><g id="id8"><path id="path9189" fill="none" stroke="#000" stroke-width="50" d="m 11300,7900 -51,0"/><path id="path9191" fill="none" stroke="#000" stroke-width="50" d="m 11198,7900 -51,0"/><path id="path9193" fill="none" stroke="#000" stroke-width="50" d="m 11096,7900 -51,0"/><path id="path9195" fill="none" stroke="#000" stroke-width="50" d="m 10994,7900 -51,0"/><path id="path9197" fill="none" stroke="#000" stroke-width="50" d="m 10892,7900 -51,0"/><path id="path9199" fill="none" stroke="#000" stroke-width="50" d="m 10790,7900 -51,0"/><path id="path9201" fill="none" stroke="#000" stroke-width="50" d="m 10688,7900 -51,0"/><path id="path9203" fill="none" stroke="#000" stroke-width="50" d="m 10586,7900 -51,0"/><path id="path9205" fill="none" stroke="#000" stroke-width="50" d="m 10484,7900 -51,0"/><path id="path9207" fill="none" stroke="#000" stroke-width="50" d="m 10382,7900 -51,0"/><path id="path9209" fill="none" stroke="#000" stroke-width="50" d="m 10280,7900 -51,0"/><path id="path9211" fill="none" stroke="#000" stroke-width="50" d="m 10178,7900 -51,0"/><path id="path9213" fill="none" stroke="#000" stroke-width="50" d="m 10076,7900 -51,0"/><path id="path9215" fill="none" stroke="#000" stroke-width="50" d="m 9974,7900 -51,0"/><path id="path9217" fill="none" stroke="#000" stroke-width="50" d="m 9872,7900 -51,0"/><path id="path9219" fill="none" stroke="#000" stroke-width="50" d="m 9770,7900 -51,0"/><path id="path9221" fill="none" stroke="#000" stroke-width="50" d="m 9668,7900 -51,0"/><path id="path9223" fill="none" stroke="#000" stroke-width="50" d="m 9566,7900 -51,0"/><path id="path9225" fill="none" stroke="#000" stroke-width="50" d="m 9464,7900 -51,0"/><path id="path9227" fill="none" stroke="#000" stroke-width="50" d="m 9362,7900 -51,0"/><path id="path9229" fill="none" stroke="#000" stroke-width="50" d="m 9260,7900 -51,0"/><path id="path9231" fill="none" stroke="#000" stroke-width="50" d="m 9158,7900 -51,0"/><path id="path9233" fill="none" stroke="#000" stroke-width="50" d="m 9056,7900 -51,0"/><path id="path9235" fill="none" stroke="#000" stroke-width="50" d="m 8954,7900 -51,0"/><path id="path9237" fill="none" stroke="#000" stroke-width="50" d="m 8852,7900 -51,0"/><path id="path9239" fill="none" stroke="#000" stroke-width="50" d="m 8750,7900 -51,0"/><path id="path9241" fill="none" stroke="#000" stroke-width="50" d="m 8648,7900 -51,0"/><path id="path9243" fill="none" stroke="#000" stroke-width="50" d="m 8546,7900 -51,0"/><path id="path9245" fill="none" stroke="#000" stroke-width="50" d="m 8444,7900 -51,0"/><path id="path9247" fill="none" stroke="#000" stroke-width="50" d="m 8342,7900 -51,0"/><path id="path9249" fill="none" stroke="#000" stroke-width="50" d="m 8240,7900 -51,0"/><path id="path9251" fill="none" stroke="#000" stroke-width="50" d="m 8138,7900 -51,0"/><path id="path9253" fill="none" stroke="#000" stroke-width="50" d="m 8036,7900 -51,0"/><path id="path9255" fill="none" stroke="#000" stroke-width="50" d="m 7934,7900 -51,0"/><path id="path9257" fill="none" stroke="#000" stroke-width="50" d="m 7832,7900 -51,0"/><path id="path9259" fill="none" stroke="#000" stroke-width="50" d="m 7730,7900 -51,0"/><path id="path9261" fill="none" stroke="#000" stroke-width="50" d="m 7628,7900 -51,0"/><path id="path9263" fill="none" stroke="#000" stroke-width="50" d="m 7526,7900 -51,0"/><path id="path9265" fill="none" stroke="#000" stroke-width="50" d="m 7424,7900 -51,0"/><path id="path9267" fill="none" stroke="#000" stroke-width="50" d="m 7322,7900 -51,0"/><path id="path9269" fill="none" stroke="#000" stroke-width="50" d="m 7220,7900 -51,0"/><path id="path9271" fill="none" stroke="#000" stroke-width="50" d="m 7118,7900 -51,0"/><path id="path9273" fill="none" stroke="#000" stroke-width="50" d="m 7016,7900 -51,0"/><path id="path9275" fill="none" stroke="#000" stroke-width="50" d="m 6914,7900 -51,0"/><path id="path9277" fill="none" stroke="#000" stroke-width="50" d="m 6812,7900 -51,0"/><path id="path9279" fill="none" stroke="#000" stroke-width="50" d="m 6710,7900 -51,0"/><path id="path9281" fill="none" stroke="#000" stroke-width="50" d="m 6608,7900 -51,0"/><path id="path9283" fill="none" stroke="#000" stroke-width="50" d="m 6506,7900 -51,0"/><path id="path9285" fill="none" stroke="#000" stroke-width="50" d="m 6404,7900 -51,0"/><path id="path9287" fill="none" stroke="#000" stroke-width="50" d="m 6302,7900 -51,0"/><path id="path9289" fill="none" stroke="#000" stroke-width="50" d="m 6200,7900 -51,0"/><path id="path9291" fill="none" stroke="#000" stroke-width="50" d="m 6098,7900 -51,0"/><path id="path9293" fill="none" stroke="#000" stroke-width="50" d="m 5996,7900 -51,0"/><path id="path9295" fill="none" stroke="#000" stroke-width="50" d="m 5894,7900 -51,0"/><path id="path9297" fill="none" stroke="#000" stroke-width="50" d="m 5792,7900 -51,0"/><path id="path9299" fill="none" stroke="#000" stroke-width="50" d="m 5690,7900 -51,0"/><path id="path9301" fill="none" stroke="#000" stroke-width="50" d="m 5588,7900 -51,0"/><path id="path9303" fill="none" stroke="#000" stroke-width="50" d="m 5486,7900 -51,0"/><path id="path9305" fill="none" stroke="#000" stroke-width="50" d="m 5384,7900 -51,0"/><path id="path9307" fill="none" stroke="#000" stroke-width="50" d="m 5282,7900 -51,0"/><path id="path9309" fill="none" stroke="#000" stroke-width="50" d="m 5180,7900 -51,0"/><path id="path9311" fill="none" stroke="#000" stroke-width="50" d="m 5078,7900 -51,0"/><path id="path9313" fill="none" stroke="#000" stroke-width="50" d="m 4976,7900 -51,0"/><path id="path9315" fill="none" stroke="#000" stroke-width="50" d="m 4874,7900 -51,0"/><path id="path9317" fill="none" stroke="#000" stroke-width="50" d="m 4772,7900 -51,0"/><path id="path9319" fill="none" stroke="#000" stroke-width="50" d="m 4670,7900 -51,0"/><path id="path9321" fill="none" stroke="#000" stroke-width="50" d="m 4568,7900 -51,0"/></g></g><g id="g9323" class="com.sun.star.drawing.TextShape"><g id="id9"><text id="text9326" class="TextShape"><tspan id="tspan9328" class="TextParagraph" font-family="Arial, sans-serif" font-size="388" font-weight="400"><tspan id="tspan9330" x="5391" y="8568" class="TextPosition"><tspan id="tspan9332" fill="#000" stroke="none">Variables</tspan></tspan></tspan></text></g></g><g id="g9334" class="com.sun.star.drawing.TextShape"><g id="id10"><text id="text9337" class="TextShape"><tspan id="tspan9339" class="TextParagraph" font-family="Arial, sans-serif" font-size="388" font-weight="400"><tspan id="tspan9341" x="9291" y="8569" class="TextPosition"><tspan id="tspan9343" fill="#000" stroke="none">Values</tspan></tspan></tspan></text></g></g><g id="g9345" class="com.sun.star.drawing.LineShape"><g id="id11"><path id="path9348" fill="none" stroke="#000" stroke-width="50" d="m 11300,6300 -51,0"/><path id="path9350" fill="none" stroke="#000" stroke-width="50" d="m 11198,6300 -51,0"/><path id="path9352" fill="none" stroke="#000" stroke-width="50" d="m 11096,6300 -51,0"/><path id="path9354" fill="none" stroke="#000" stroke-width="50" d="m 10994,6300 -51,0"/><path id="path9356" fill="none" stroke="#000" stroke-width="50" d="m 10892,6300 -51,0"/><path id="path9358" fill="none" stroke="#000" stroke-width="50" d="m 10790,6300 -51,0"/><path id="path9360" fill="none" stroke="#000" stroke-width="50" d="m 10688,6300 -51,0"/><path id="path9362" fill="none" stroke="#000" stroke-width="50" d="m 10586,6300 -51,0"/><path id="path9364" fill="none" stroke="#000" stroke-width="50" d="m 10484,6300 -51,0"/><path id="path9366" fill="none" stroke="#000" stroke-width="50" d="m 10382,6300 -51,0"/><path id="path9368" fill="none" stroke="#000" stroke-width="50" d="m 10280,6300 -51,0"/><path id="path9370" fill="none" stroke="#000" stroke-width="50" d="m 10178,6300 -51,0"/><path id="path9372" fill="none" stroke="#000" stroke-width="50" d="m 10076,6300 -51,0"/><path id="path9374" fill="none" stroke="#000" stroke-width="50" d="m 9974,6300 -51,0"/><path id="path9376" fill="none" stroke="#000" stroke-width="50" d="m 9872,6300 -51,0"/><path id="path9378" fill="none" stroke="#000" stroke-width="50" d="m 9770,6300 -51,0"/><path id="path9380" fill="none" stroke="#000" stroke-width="50" d="m 9668,6300 -51,0"/><path id="path9382" fill="none" stroke="#000" stroke-width="50" d="m 9566,6300 -51,0"/><path id="path9384" fill="none" stroke="#000" stroke-width="50" d="m 9464,6300 -51,0"/><path id="path9386" fill="none" stroke="#000" stroke-width="50" d="m 9362,6300 -51,0"/><path id="path9388" fill="none" stroke="#000" stroke-width="50" d="m 9260,6300 -51,0"/><path id="path9390" fill="none" stroke="#000" stroke-width="50" d="m 9158,6300 -51,0"/><path id="path9392" fill="none" stroke="#000" stroke-width="50" d="m 9056,6300 -51,0"/><path id="path9394" fill="none" stroke="#000" stroke-width="50" d="m 8954,6300 -51,0"/><path id="path9396" fill="none" stroke="#000" stroke-width="50" d="m 8852,6300 -51,0"/><path id="path9398" fill="none" stroke="#000" stroke-width="50" d="m 8750,6300 -51,0"/><path id="path9400" fill="none" stroke="#000" stroke-width="50" d="m 8648,6300 -51,0"/><path id="path9402" fill="none" stroke="#000" stroke-width="50" d="m 8546,6300 -51,0"/><path id="path9404" fill="none" stroke="#000" stroke-width="50" d="m 8444,6300 -51,0"/><path id="path9406" fill="none" stroke="#000" stroke-width="50" d="m 8342,6300 -51,0"/><path id="path9408" fill="none" stroke="#000" stroke-width="50" d="m 8240,6300 -51,0"/><path id="path9410" fill="none" stroke="#000" stroke-width="50" d="m 8138,6300 -51,0"/><path id="path9412" fill="none" stroke="#000" stroke-width="50" d="m 8036,6300 -51,0"/><path id="path9414" fill="none" stroke="#000" stroke-width="50" d="m 7934,6300 -51,0"/><path id="path9416" fill="none" stroke="#000" stroke-width="50" d="m 7832,6300 -51,0"/><path id="path9418" fill="none" stroke="#000" stroke-width="50" d="m 7730,6300 -51,0"/><path id="path9420" fill="none" stroke="#000" stroke-width="50" d="m 7628,6300 -51,0"/><path id="path9422" fill="none" stroke="#000" stroke-width="50" d="m 7526,6300 -51,0"/><path id="path9424" fill="none" stroke="#000" stroke-width="50" d="m 7424,6300 -51,0"/><path id="path9426" fill="none" stroke="#000" stroke-width="50" d="m 7322,6300 -51,0"/><path id="path9428" fill="none" stroke="#000" stroke-width="50" d="m 7220,6300 -51,0"/><path id="path9430" fill="none" stroke="#000" stroke-width="50" d="m 7118,6300 -51,0"/><path id="path9432" fill="none" stroke="#000" stroke-width="50" d="m 7016,6300 -51,0"/><path id="path9434" fill="none" stroke="#000" stroke-width="50" d="m 6914,6300 -51,0"/><path id="path9436" fill="none" stroke="#000" stroke-width="50" d="m 6812,6300 -51,0"/><path id="path9438" fill="none" stroke="#000" stroke-width="50" d="m 6710,6300 -51,0"/><path id="path9440" fill="none" stroke="#000" stroke-width="50" d="m 6608,6300 -51,0"/><path id="path9442" fill="none" stroke="#000" stroke-width="50" d="m 6506,6300 -51,0"/><path id="path9444" fill="none" stroke="#000" stroke-width="50" d="m 6404,6300 -51,0"/><path id="path9446" fill="none" stroke="#000" stroke-width="50" d="m 6302,6300 -51,0"/><path id="path9448" fill="none" stroke="#000" stroke-width="50" d="m 6200,6300 -51,0"/><path id="path9450" fill="none" stroke="#000" stroke-width="50" d="m 6098,6300 -51,0"/><path id="path9452" fill="none" stroke="#000" stroke-width="50" d="m 5996,6300 -51,0"/><path id="path9454" fill="none" stroke="#000" stroke-width="50" d="m 5894,6300 -51,0"/><path id="path9456" fill="none" stroke="#000" stroke-width="50" d="m 5792,6300 -51,0"/><path id="path9458" fill="none" stroke="#000" stroke-width="50" d="m 5690,6300 -51,0"/><path id="path9460" fill="none" stroke="#000" stroke-width="50" d="m 5588,6300 -51,0"/><path id="path9462" fill="none" stroke="#000" stroke-width="50" d="m 5486,6300 -51,0"/><path id="path9464" fill="none" stroke="#000" stroke-width="50" d="m 5384,6300 -51,0"/><path id="path9466" fill="none" stroke="#000" stroke-width="50" d="m 5282,6300 -51,0"/><path id="path9468" fill="none" stroke="#000" stroke-width="50" d="m 5180,6300 -51,0"/><path id="path9470" fill="none" stroke="#000" stroke-width="50" d="m 5078,6300 -51,0"/><path id="path9472" fill="none" stroke="#000" stroke-width="50" d="m 4976,6300 -51,0"/><path id="path9474" fill="none" stroke="#000" stroke-width="50" d="m 4874,6300 -51,0"/><path id="path9476" fill="none" stroke="#000" stroke-width="50" d="m 4772,6300 -51,0"/><path id="path9478" fill="none" stroke="#000" stroke-width="50" d="m 4670,6300 -51,0"/><path id="path9480" fill="none" stroke="#000" stroke-width="50" d="m 4568,6300 -51,0"/></g></g><g id="g9482" class="com.sun.star.drawing.CustomShape"><g id="id12"><path id="path9485" fill="none" stroke="#000" stroke-width="50" d="m 4159,2600 c -30,0 -61,141 -61,283 l 0,1134 c 0,141 -30,283 -60,283 30,0 60,142 60,283 l 0,1134 c 0,142 31,284 61,284"/><path id="path9487" fill="none" stroke="#000" stroke-width="50" d="m 4038,2600 0,0 z"/><path id="path9489" fill="none" stroke="#000" stroke-width="50" d="m 4160,6001 0,0 z"/></g></g><g id="g9491" class="com.sun.star.drawing.TextShape"><g id="id13"><path id="path9494" fill="silver" stroke="none" d="m 6229,5601 -683,0 0,-683 1366,0 0,683 -683,0 z"/><text id="text9496" class="TextShape"><tspan id="tspan9498" class="TextParagraph" font-family="Arial, sans-serif" font-size="388" font-weight="400"><tspan id="tspan9500" x="5796" y="5394" class="TextPosition"><tspan id="tspan9502" fill="#000" stroke="none">temp</tspan></tspan></tspan></text></g></g><g id="g9504" class="com.sun.star.drawing.LineShape"><g id="id14"><path id="path9507" fill="none" stroke="#000" d="M 7200,5300 8864,6631"/><path id="path9509" fill="#000" stroke="none" d="m 9200,6900 -258,-398 -187,234 445,164 z"/></g></g><g id="g9511" class="com.sun.star.drawing.TextShape"><g id="id15"><path id="path9514" fill="silver" stroke="none" d="m 6134,4502 -888,0 0,-683 1776,0 0,683 -888,0 z"/><text id="text9516" class="TextShape"><tspan id="tspan9518" class="TextParagraph" font-family="Arial, sans-serif" font-size="388" font-weight="400"><tspan id="tspan9520" x="5496" y="4295" class="TextPosition"><tspan id="tspan9522" fill="#000" stroke="none">temp_k</tspan></tspan></tspan></text></g></g><g id="g9524" class="com.sun.star.drawing.TextShape"><g id="id16"><path id="path9527" fill="none" stroke="#000" stroke-width="50" d="m 9869,4501 -869,0 0,-733 1737,0 0,733 -868,0 z"/><text id="text9529" class="TextShape"><tspan id="tspan9531" class="TextParagraph" font-family="Arial, sans-serif" font-size="388" font-weight="400"><tspan id="tspan9533" x="9275" y="4269" class="TextPosition"><tspan id="tspan9535" fill="#000" stroke="none">273.15</tspan></tspan></tspan></text></g></g><g id="g9537" class="com.sun.star.drawing.LineShape"><g id="id17"><path id="path9540" fill="none" stroke="#000" d="m 7200,4200 1270,0"/><path id="path9542" fill="#000" stroke="none" d="m 8900,4200 -450,-150 0,300 450,-150 z"/></g></g><g id="g9544" class="com.sun.star.drawing.TextShape"><g id="id18"><path id="path9547" fill="silver" stroke="none" d="m 6172,3402 -725,0 0,-683 1450,0 0,683 -725,0 z"/><text id="text9549" class="TextShape"><tspan id="tspan9551" class="TextParagraph" font-family="Arial, sans-serif" font-size="388" font-weight="400"><tspan id="tspan9553" x="5697" y="3195" class="TextPosition"><tspan id="tspan9555" fill="#000" stroke="none">result</tspan></tspan></tspan></text></g></g><g id="g9557" class="com.sun.star.drawing.TextShape"><g id="id19"><path id="path9560" fill="none" stroke="#000" stroke-width="50" d="m 9846,3401 -545,0 0,-733 1090,0 0,733 -545,0 z"/><text id="text9562" class="TextShape"><tspan id="tspan9564" class="TextParagraph" font-family="Arial, sans-serif" font-size="388" font-weight="400"><tspan id="tspan9566" x="9576" y="3169" class="TextPosition"><tspan id="tspan9568" fill="#000" stroke="none">0.0</tspan></tspan></tspan></text></g></g><g id="g9570" class="com.sun.star.drawing.LineShape"><g id="id20"><path id="path9573" fill="none" stroke="#000" d="m 7201,3100 1469,0"/><path id="path9575" fill="#000" stroke="none" d="m 9100,3100 -450,-150 0,300 450,-150 z"/></g></g></g></g></g></g></svg>