<svg xmlns="http://www.w3.org/2000/svg" xmlns:ooo="http://xml.openoffice.org/svg/export" xmlns:svg="http://www.w3.org/2000/svg" id="svg2" width="242.114" height="205.972" fill-rule="evenodd" stroke-linejoin="round" stroke-width="28.222" clip-path="url(#presentation_clip_path)" preserveAspectRatio="xMidYMid" version="1.2" viewBox="0 0 6833 5813" xml:space="preserve"><metadata id="metadata367"/><defs id="defs4" class="ClipPathGroup"><clipPath id="presentation_clip_path" clipPathUnits="userSpaceOnUse"><rect id="rect7" width="21590" height="27940" x="0" y="0"/></clipPath></defs><defs id="defs13" class="EmbeddedBulletChars"><g id="bullet-char-template(57356)" transform="scale(4.8828125e-4,-4.8828125e-4)"><path id="path16" d="M 580,1141 1163,571 580,0 -4,571 580,1141 z"/></g><g id="bullet-char-template(57354)" transform="scale(4.8828125e-4,-4.8828125e-4)"><path id="path19" d="m 8,1128 1129,0 L 1137,0 8,0 8,1128 z"/></g><g id="bullet-char-template(10146)" transform="scale(4.8828125e-4,-4.8828125e-4)"><path id="path22" d="M 174,0 602,739 174,1481 1456,739 174,0 z m 1184,739 -1049,607 350,-607 699,0 z"/></g><g id="bullet-char-template(10132)" transform="scale(4.8828125e-4,-4.8828125e-4)"><path id="path25" d="M 2015,739 1276,0 717,0 l 543,543 -1086,0 0,393 1086,0 -543,545 557,0 741,-742 z"/></g><g id="bullet-char-template(10007)" transform="scale(4.8828125e-4,-4.8828125e-4)"><path id="path28" d="m 0,-2 c -7,16 -16,29 -25,39 l 381,530 c -94,256 -141,385 -141,387 0,25 13,38 40,38 9,0 21,-2 34,-5 21,4 42,12 65,25 l 27,-13 111,-251 280,301 64,-25 24,25 c 21,-10 41,-24 62,-43 C 886,937 835,863 770,784 769,783 710,716 594,584 L 774,223 c 0,-27 -21,-55 -63,-84 l 16,-20 C 717,90 699,76 672,76 641,76 570,178 457,381 L 164,-76 c -22,-34 -53,-51 -92,-51 -42,0 -63,17 -64,51 -7,9 -10,24 -10,44 0,9 1,19 2,30 z"/></g><g id="bullet-char-template(10004)" transform="scale(4.8828125e-4,-4.8828125e-4)"><path id="path31" d="M 285,-33 C 182,-33 111,30 74,156 52,228 41,333 41,471 c 0,78 14,145 41,201 34,71 87,106 158,106 53,0 88,-31 106,-94 l 23,-176 c 8,-64 28,-97 59,-98 l 735,706 c 11,11 33,17 66,17 42,0 63,-15 63,-46 l 0,-122 c 0,-36 -10,-64 -30,-84 L 442,47 C 390,-6 338,-33 285,-33 z"/></g><g id="bullet-char-template(9679)" transform="scale(4.8828125e-4,-4.8828125e-4)"><path id="path34" d="M 813,0 C 632,0 489,54 383,161 276,268 223,411 223,592 c 0,181 53,324 160,431 106,107 249,161 430,161 179,0 323,-54 432,-161 108,-107 162,-251 162,-431 0,-180 -54,-324 -162,-431 C 1136,54 992,0 813,0 z"/></g><g id="bullet-char-template(8226)" transform="scale(4.8828125e-4,-4.8828125e-4)"><path id="path37" d="m 346,457 c -73,0 -137,26 -191,78 -54,51 -81,114 -81,188 0,73 27,136 81,188 54,52 118,78 191,78 73,0 134,-26 185,-79 51,-51 77,-114 77,-187 0,-75 -25,-137 -76,-188 -50,-52 -112,-78 -186,-78 z"/></g><g id="bullet-char-template(8211)" transform="scale(4.8828125e-4,-4.8828125e-4)"><path id="path40" d="m -4,459 1139,0 0,147 -1139,0 0,-147 z"/></g></defs><g id="g49" class="SlideGroup" transform="translate(-1092,-1312)"><g id="g51"><g id="id1" class="Slide" clip-path="url(#presentation_clip_path)"><g id="g54" class="Page"><g id="g56" class="com.sun.star.drawing.LineShape"><g id="id3"><path id="path59" fill="none" stroke="#000" d="m 3900,5300 1470,0"/><path id="path61" fill="#000" stroke="none" d="m 5800,5300 -450,-150 0,300 450,-150 z"/></g></g><g id="g63" class="com.sun.star.drawing.TextShape"><g id="id4"><path id="path66" fill="silver" stroke="none" d="m 2823,5700 -878,0 0,-683 1755,0 0,683 -877,0 z"/><text id="text68" class="TextShape"><tspan id="tspan70" class="TextParagraph" font-family="Arial, sans-serif" font-size="388" font-weight="400"><tspan id="tspan72" x="2195" y="5493" class="TextPosition"><tspan id="tspan74" fill="#000" stroke="none">original</tspan></tspan></tspan></text></g></g><g id="g76" class="com.sun.star.drawing.TextShape"><g id="id5"><path id="path79" fill="none" stroke="#000" stroke-width="50" d="m 6492,5700 -492,0 0,-733 984,0 0,733 -492,0 z"/><text id="text81" class="TextShape"><tspan id="tspan83" class="TextParagraph" font-family="Arial, sans-serif" font-size="388" font-weight="400"><tspan id="tspan85" x="6275" y="5468" class="TextPosition"><tspan id="tspan87" fill="#000" stroke="none">32</tspan></tspan></tspan></text></g></g><g id="g89" class="com.sun.star.drawing.LineShape"><g id="id6"><path id="path92" fill="none" stroke="#000" stroke-width="50" d="m 4600,7100 0,-51"/><path id="path94" fill="none" stroke="#000" stroke-width="50" d="m 4600,6998 0,-51"/><path id="path96" fill="none" stroke="#000" stroke-width="50" d="m 4600,6896 0,-51"/><path id="path98" fill="none" stroke="#000" stroke-width="50" d="m 4600,6794 0,-51"/><path id="path100" fill="none" stroke="#000" stroke-width="50" d="m 4600,6692 0,-51"/><path id="path102" fill="none" stroke="#000" stroke-width="50" d="m 4600,6590 0,-51"/><path id="path104" fill="none" stroke="#000" stroke-width="50" d="m 4600,6488 0,-51"/><path id="path106" fill="none" stroke="#000" stroke-width="50" d="m 4600,6386 0,-51"/><path id="path108" fill="none" stroke="#000" stroke-width="50" d="m 4600,6284 0,-51"/><path id="path110" fill="none" stroke="#000" stroke-width="50" d="m 4600,6182 0,-51"/><path id="path112" fill="none" stroke="#000" stroke-width="50" d="m 4600,6080 0,-51"/><path id="path114" fill="none" stroke="#000" stroke-width="50" d="m 4600,5978 0,-51"/><path id="path116" fill="none" stroke="#000" stroke-width="50" d="m 4600,5876 0,-51"/><path id="path118" fill="none" stroke="#000" stroke-width="50" d="m 4600,5774 0,-51"/><path id="path120" fill="none" stroke="#000" stroke-width="50" d="m 4600,5672 0,-51"/><path id="path122" fill="none" stroke="#000" stroke-width="50" d="m 4600,5570 0,-51"/><path id="path124" fill="none" stroke="#000" stroke-width="50" d="m 4600,5468 0,-51"/><path id="path126" fill="none" stroke="#000" stroke-width="50" d="m 4600,5366 0,-51"/><path id="path128" fill="none" stroke="#000" stroke-width="50" d="m 4600,5264 0,-51"/><path id="path130" fill="none" stroke="#000" stroke-width="50" d="m 4600,5162 0,-51"/><path id="path132" fill="none" stroke="#000" stroke-width="50" d="m 4600,5060 0,-51"/><path id="path134" fill="none" stroke="#000" stroke-width="50" d="m 4600,4958 0,-51"/><path id="path136" fill="none" stroke="#000" stroke-width="50" d="m 4600,4856 0,-51"/><path id="path138" fill="none" stroke="#000" stroke-width="50" d="m 4600,4754 0,-51"/><path id="path140" fill="none" stroke="#000" stroke-width="50" d="m 4600,4652 0,-51"/><path id="path142" fill="none" stroke="#000" stroke-width="50" d="m 4600,4550 0,-51"/><path id="path144" fill="none" stroke="#000" stroke-width="50" d="m 4600,4448 0,-51"/><path id="path146" fill="none" stroke="#000" stroke-width="50" d="m 4600,4346 0,-51"/><path id="path148" fill="none" stroke="#000" stroke-width="50" d="m 4600,4244 0,-51"/><path id="path150" fill="none" stroke="#000" stroke-width="50" d="m 4600,4142 0,-51"/><path id="path152" fill="none" stroke="#000" stroke-width="50" d="m 4600,4040 0,-51"/><path id="path154" fill="none" stroke="#000" stroke-width="50" d="m 4600,3938 0,-51"/><path id="path156" fill="none" stroke="#000" stroke-width="50" d="m 4600,3836 0,-51"/><path id="path158" fill="none" stroke="#000" stroke-width="50" d="m 4600,3734 0,-51"/><path id="path160" fill="none" stroke="#000" stroke-width="50" d="m 4600,3632 0,-51"/><path id="path162" fill="none" stroke="#000" stroke-width="50" d="m 4600,3530 0,-51"/><path id="path164" fill="none" stroke="#000" stroke-width="50" d="m 4600,3428 0,-51"/><path id="path166" fill="none" stroke="#000" stroke-width="50" d="m 4600,3326 0,-51"/><path id="path168" fill="none" stroke="#000" stroke-width="50" d="m 4600,3224 0,-51"/><path id="path170" fill="none" stroke="#000" stroke-width="50" d="m 4600,3122 0,-51"/><path id="path172" fill="none" stroke="#000" stroke-width="50" d="m 4600,3020 0,-51"/><path id="path174" fill="none" stroke="#000" stroke-width="50" d="m 4600,2918 0,-51"/><path id="path176" fill="none" stroke="#000" stroke-width="50" d="m 4600,2816 0,-51"/><path id="path178" fill="none" stroke="#000" stroke-width="50" d="m 4600,2714 0,-51"/><path id="path180" fill="none" stroke="#000" stroke-width="50" d="m 4600,2612 0,-51"/><path id="path182" fill="none" stroke="#000" stroke-width="50" d="m 4600,2510 0,-51"/><path id="path184" fill="none" stroke="#000" stroke-width="50" d="m 4600,2408 0,-51"/><path id="path186" fill="none" stroke="#000" stroke-width="50" d="m 4600,2306 0,-51"/><path id="path188" fill="none" stroke="#000" stroke-width="50" d="m 4600,2204 0,-51"/><path id="path190" fill="none" stroke="#000" stroke-width="50" d="m 4600,2102 0,-51"/><path id="path192" fill="none" stroke="#000" stroke-width="50" d="m 4600,2000 0,-51"/><path id="path194" fill="none" stroke="#000" stroke-width="50" d="m 4600,1898 0,-51"/><path id="path196" fill="none" stroke="#000" stroke-width="50" d="m 4600,1796 0,-51"/><path id="path198" fill="none" stroke="#000" stroke-width="50" d="m 4600,1694 0,-51"/><path id="path200" fill="none" stroke="#000" stroke-width="50" d="m 4600,1592 0,-51"/><path id="path202" fill="none" stroke="#000" stroke-width="50" d="m 4600,1490 0,-51"/><path id="path204" fill="none" stroke="#000" stroke-width="50" d="m 4600,1388 0,-51"/></g></g><g id="g206" class="com.sun.star.drawing.LineShape"><g id="id7"><path id="path209" fill="none" stroke="#000" stroke-width="50" d="m 7900,6100 -51,0"/><path id="path211" fill="none" stroke="#000" stroke-width="50" d="m 7798,6100 -51,0"/><path id="path213" fill="none" stroke="#000" stroke-width="50" d="m 7696,6100 -51,0"/><path id="path215" fill="none" stroke="#000" stroke-width="50" d="m 7594,6100 -51,0"/><path id="path217" fill="none" stroke="#000" stroke-width="50" d="m 7492,6100 -51,0"/><path id="path219" fill="none" stroke="#000" stroke-width="50" d="m 7390,6100 -51,0"/><path id="path221" fill="none" stroke="#000" stroke-width="50" d="m 7288,6100 -51,0"/><path id="path223" fill="none" stroke="#000" stroke-width="50" d="m 7186,6100 -51,0"/><path id="path225" fill="none" stroke="#000" stroke-width="50" d="m 7084,6100 -51,0"/><path id="path227" fill="none" stroke="#000" stroke-width="50" d="m 6982,6100 -51,0"/><path id="path229" fill="none" stroke="#000" stroke-width="50" d="m 6880,6100 -51,0"/><path id="path231" fill="none" stroke="#000" stroke-width="50" d="m 6778,6100 -51,0"/><path id="path233" fill="none" stroke="#000" stroke-width="50" d="m 6676,6100 -51,0"/><path id="path235" fill="none" stroke="#000" stroke-width="50" d="m 6574,6100 -51,0"/><path id="path237" fill="none" stroke="#000" stroke-width="50" d="m 6472,6100 -51,0"/><path id="path239" fill="none" stroke="#000" stroke-width="50" d="m 6370,6100 -51,0"/><path id="path241" fill="none" stroke="#000" stroke-width="50" d="m 6268,6100 -51,0"/><path id="path243" fill="none" stroke="#000" stroke-width="50" d="m 6166,6100 -51,0"/><path id="path245" fill="none" stroke="#000" stroke-width="50" d="m 6064,6100 -51,0"/><path id="path247" fill="none" stroke="#000" stroke-width="50" d="m 5962,6100 -51,0"/><path id="path249" fill="none" stroke="#000" stroke-width="50" d="m 5860,6100 -51,0"/><path id="path251" fill="none" stroke="#000" stroke-width="50" d="m 5758,6100 -51,0"/><path id="path253" fill="none" stroke="#000" stroke-width="50" d="m 5656,6100 -51,0"/><path id="path255" fill="none" stroke="#000" stroke-width="50" d="m 5554,6100 -51,0"/><path id="path257" fill="none" stroke="#000" stroke-width="50" d="m 5452,6100 -51,0"/><path id="path259" fill="none" stroke="#000" stroke-width="50" d="m 5350,6100 -51,0"/><path id="path261" fill="none" stroke="#000" stroke-width="50" d="m 5248,6100 -51,0"/><path id="path263" fill="none" stroke="#000" stroke-width="50" d="m 5146,6100 -51,0"/><path id="path265" fill="none" stroke="#000" stroke-width="50" d="m 5044,6100 -51,0"/><path id="path267" fill="none" stroke="#000" stroke-width="50" d="m 4942,6100 -51,0"/><path id="path269" fill="none" stroke="#000" stroke-width="50" d="m 4840,6100 -51,0"/><path id="path271" fill="none" stroke="#000" stroke-width="50" d="m 4738,6100 -51,0"/><path id="path273" fill="none" stroke="#000" stroke-width="50" d="m 4636,6100 -51,0"/><path id="path275" fill="none" stroke="#000" stroke-width="50" d="m 4534,6100 -51,0"/><path id="path277" fill="none" stroke="#000" stroke-width="50" d="m 4432,6100 -51,0"/><path id="path279" fill="none" stroke="#000" stroke-width="50" d="m 4330,6100 -51,0"/><path id="path281" fill="none" stroke="#000" stroke-width="50" d="m 4228,6100 -51,0"/><path id="path283" fill="none" stroke="#000" stroke-width="50" d="m 4126,6100 -51,0"/><path id="path285" fill="none" stroke="#000" stroke-width="50" d="m 4024,6100 -51,0"/><path id="path287" fill="none" stroke="#000" stroke-width="50" d="m 3922,6100 -51,0"/><path id="path289" fill="none" stroke="#000" stroke-width="50" d="m 3820,6100 -51,0"/><path id="path291" fill="none" stroke="#000" stroke-width="50" d="m 3718,6100 -51,0"/><path id="path293" fill="none" stroke="#000" stroke-width="50" d="m 3616,6100 -51,0"/><path id="path295" fill="none" stroke="#000" stroke-width="50" d="m 3514,6100 -51,0"/><path id="path297" fill="none" stroke="#000" stroke-width="50" d="m 3412,6100 -51,0"/><path id="path299" fill="none" stroke="#000" stroke-width="50" d="m 3310,6100 -51,0"/><path id="path301" fill="none" stroke="#000" stroke-width="50" d="m 3208,6100 -51,0"/><path id="path303" fill="none" stroke="#000" stroke-width="50" d="m 3106,6100 -51,0"/><path id="path305" fill="none" stroke="#000" stroke-width="50" d="m 3004,6100 -51,0"/><path id="path307" fill="none" stroke="#000" stroke-width="50" d="m 2902,6100 -51,0"/><path id="path309" fill="none" stroke="#000" stroke-width="50" d="m 2800,6100 -51,0"/><path id="path311" fill="none" stroke="#000" stroke-width="50" d="m 2698,6100 -51,0"/><path id="path313" fill="none" stroke="#000" stroke-width="50" d="m 2596,6100 -51,0"/><path id="path315" fill="none" stroke="#000" stroke-width="50" d="m 2494,6100 -51,0"/><path id="path317" fill="none" stroke="#000" stroke-width="50" d="m 2392,6100 -51,0"/><path id="path319" fill="none" stroke="#000" stroke-width="50" d="m 2290,6100 -51,0"/><path id="path321" fill="none" stroke="#000" stroke-width="50" d="m 2188,6100 -51,0"/><path id="path323" fill="none" stroke="#000" stroke-width="50" d="m 2086,6100 -51,0"/><path id="path325" fill="none" stroke="#000" stroke-width="50" d="m 1984,6100 -51,0"/><path id="path327" fill="none" stroke="#000" stroke-width="50" d="m 1882,6100 -51,0"/><path id="path329" fill="none" stroke="#000" stroke-width="50" d="m 1780,6100 -51,0"/><path id="path331" fill="none" stroke="#000" stroke-width="50" d="m 1678,6100 -51,0"/><path id="path333" fill="none" stroke="#000" stroke-width="50" d="m 1576,6100 -51,0"/><path id="path335" fill="none" stroke="#000" stroke-width="50" d="m 1474,6100 -51,0"/><path id="path337" fill="none" stroke="#000" stroke-width="50" d="m 1372,6100 -51,0"/><path id="path339" fill="none" stroke="#000" stroke-width="50" d="m 1270,6100 -51,0"/><path id="path341" fill="none" stroke="#000" stroke-width="50" d="m 1168,6100 -51,0"/></g></g><g id="g343" class="com.sun.star.drawing.TextShape"><g id="id8"><text id="text346" class="TextShape"><tspan id="tspan348" class="TextParagraph" font-family="Arial, sans-serif" font-size="388" font-weight="400"><tspan id="tspan350" x="1991" y="6768" class="TextPosition"><tspan id="tspan352" fill="#000" stroke="none">Variables</tspan></tspan></tspan></text></g></g><g id="g354" class="com.sun.star.drawing.TextShape"><g id="id9"><text id="text357" class="TextShape"><tspan id="tspan359" class="TextParagraph" font-family="Arial, sans-serif" font-size="388" font-weight="400"><tspan id="tspan361" x="5891" y="6769" class="TextPosition"><tspan id="tspan363" fill="#000" stroke="none">Values</tspan></tspan></tspan></text></g></g></g></g></g></g></svg>