<svg xmlns="http://www.w3.org/2000/svg" xmlns:ooo="http://xml.openoffice.org/svg/export" xmlns:svg="http://www.w3.org/2000/svg" id="svg2" width="354.911" height="205.972" fill-rule="evenodd" stroke-linejoin="round" stroke-width="28.222" clip-path="url(#presentation_clip_path)" preserveAspectRatio="xMidYMid" version="1.2" viewBox="0 0 10016.381 5813" xml:space="preserve"><metadata id="metadata544"/><defs id="defs4" class="ClipPathGroup"><clipPath id="presentation_clip_path" clipPathUnits="userSpaceOnUse"><rect id="rect7" width="21590" height="27940" x="0" y="0"/></clipPath></defs><defs id="defs13" class="EmbeddedBulletChars"><g id="bullet-char-template(57356)" transform="scale(4.8828125e-4,-4.8828125e-4)"><path id="path16" d="M 580,1141 1163,571 580,0 -4,571 580,1141 z"/></g><g id="bullet-char-template(57354)" transform="scale(4.8828125e-4,-4.8828125e-4)"><path id="path19" d="m 8,1128 1129,0 L 1137,0 8,0 8,1128 z"/></g><g id="bullet-char-template(10146)" transform="scale(4.8828125e-4,-4.8828125e-4)"><path id="path22" d="M 174,0 602,739 174,1481 1456,739 174,0 z m 1184,739 -1049,607 350,-607 699,0 z"/></g><g id="bullet-char-template(10132)" transform="scale(4.8828125e-4,-4.8828125e-4)"><path id="path25" d="M 2015,739 1276,0 717,0 l 543,543 -1086,0 0,393 1086,0 -543,545 557,0 741,-742 z"/></g><g id="bullet-char-template(10007)" transform="scale(4.8828125e-4,-4.8828125e-4)"><path id="path28" d="m 0,-2 c -7,16 -16,29 -25,39 l 381,530 c -94,256 -141,385 -141,387 0,25 13,38 40,38 9,0 21,-2 34,-5 21,4 42,12 65,25 l 27,-13 111,-251 280,301 64,-25 24,25 c 21,-10 41,-24 62,-43 C 886,937 835,863 770,784 769,783 710,716 594,584 L 774,223 c 0,-27 -21,-55 -63,-84 l 16,-20 C 717,90 699,76 672,76 641,76 570,178 457,381 L 164,-76 c -22,-34 -53,-51 -92,-51 -42,0 -63,17 -64,51 -7,9 -10,24 -10,44 0,9 1,19 2,30 z"/></g><g id="bullet-char-template(10004)" transform="scale(4.8828125e-4,-4.8828125e-4)"><path id="path31" d="M 285,-33 C 182,-33 111,30 74,156 52,228 41,333 41,471 c 0,78 14,145 41,201 34,71 87,106 158,106 53,0 88,-31 106,-94 l 23,-176 c 8,-64 28,-97 59,-98 l 735,706 c 11,11 33,17 66,17 42,0 63,-15 63,-46 l 0,-122 c 0,-36 -10,-64 -30,-84 L 442,47 C 390,-6 338,-33 285,-33 z"/></g><g id="bullet-char-template(9679)" transform="scale(4.8828125e-4,-4.8828125e-4)"><path id="path34" d="M 813,0 C 632,0 489,54 383,161 276,268 223,411 223,592 c 0,181 53,324 160,431 106,107 249,161 430,161 179,0 323,-54 432,-161 108,-107 162,-251 162,-431 0,-180 -54,-324 -162,-431 C 1136,54 992,0 813,0 z"/></g><g id="bullet-char-template(8226)" transform="scale(4.8828125e-4,-4.8828125e-4)"><path id="path37" d="m 346,457 c -73,0 -137,26 -191,78 -54,51 -81,114 -81,188 0,73 27,136 81,188 54,52 118,78 191,78 73,0 134,-26 185,-79 51,-51 77,-114 77,-187 0,-75 -25,-137 -76,-188 -50,-52 -112,-78 -186,-78 z"/></g><g id="bullet-char-template(8211)" transform="scale(4.8828125e-4,-4.8828125e-4)"><path id="path40" d="m -4,459 1139,0 0,147 -1139,0 0,-147 z"/></g></defs><g id="g49" class="SlideGroup" transform="translate(-1308.6191,-1312)"><g id="g51"><g id="id1" class="Slide" clip-path="url(#presentation_clip_path)"><g id="g54" class="Page"><g id="g56" class="com.sun.star.drawing.TextShape"><g id="id3"><text id="text59" class="TextShape"><tspan id="tspan61" class="TextParagraph" font-family="Arial, sans-serif" font-size="388" font-style="italic" font-weight="400"><tspan id="tspan63" x="1291" y="3569" class="TextPosition"><tspan id="tspan65" fill="#000" stroke="none">fahr_to_celsius</tspan></tspan></tspan></text></g></g><g id="g67" class="com.sun.star.drawing.LineShape"><g id="id4"><path id="path70" fill="none" stroke="#000" d="m 7300,5300 1470,0"/><path id="path72" fill="#000" stroke="none" d="m 9200,5300 -450,-150 0,300 450,-150 z"/></g></g><g id="g74" class="com.sun.star.drawing.TextShape"><g id="id5"><path id="path77" fill="silver" stroke="none" d="m 6223,5700 -878,0 0,-683 1755,0 0,683 -877,0 z"/><text id="text79" class="TextShape"><tspan id="tspan81" class="TextParagraph" font-family="Arial, sans-serif" font-size="388" font-weight="400"><tspan id="tspan83" x="5595" y="5493" class="TextPosition"><tspan id="tspan85" fill="#000" stroke="none">original</tspan></tspan></tspan></text></g></g><g id="g87" class="com.sun.star.drawing.TextShape"><g id="id6"><path id="path90" fill="none" stroke="#000" stroke-width="50" d="m 9892,5700 -492,0 0,-733 984,0 0,733 -492,0 z"/><text id="text92" class="TextShape"><tspan id="tspan94" class="TextParagraph" font-family="Arial, sans-serif" font-size="388" font-weight="400"><tspan id="tspan96" x="9675" y="5468" class="TextPosition"><tspan id="tspan98" fill="#000" stroke="none">32</tspan></tspan></tspan></text></g></g><g id="g100" class="com.sun.star.drawing.LineShape"><g id="id7"><path id="path103" fill="none" stroke="#000" stroke-width="50" d="m 8000,7100 0,-51"/><path id="path105" fill="none" stroke="#000" stroke-width="50" d="m 8000,6998 0,-51"/><path id="path107" fill="none" stroke="#000" stroke-width="50" d="m 8000,6896 0,-51"/><path id="path109" fill="none" stroke="#000" stroke-width="50" d="m 8000,6794 0,-51"/><path id="path111" fill="none" stroke="#000" stroke-width="50" d="m 8000,6692 0,-51"/><path id="path113" fill="none" stroke="#000" stroke-width="50" d="m 8000,6590 0,-51"/><path id="path115" fill="none" stroke="#000" stroke-width="50" d="m 8000,6488 0,-51"/><path id="path117" fill="none" stroke="#000" stroke-width="50" d="m 8000,6386 0,-51"/><path id="path119" fill="none" stroke="#000" stroke-width="50" d="m 8000,6284 0,-51"/><path id="path121" fill="none" stroke="#000" stroke-width="50" d="m 8000,6182 0,-51"/><path id="path123" fill="none" stroke="#000" stroke-width="50" d="m 8000,6080 0,-51"/><path id="path125" fill="none" stroke="#000" stroke-width="50" d="m 8000,5978 0,-51"/><path id="path127" fill="none" stroke="#000" stroke-width="50" d="m 8000,5876 0,-51"/><path id="path129" fill="none" stroke="#000" stroke-width="50" d="m 8000,5774 0,-51"/><path id="path131" fill="none" stroke="#000" stroke-width="50" d="m 8000,5672 0,-51"/><path id="path133" fill="none" stroke="#000" stroke-width="50" d="m 8000,5570 0,-51"/><path id="path135" fill="none" stroke="#000" stroke-width="50" d="m 8000,5468 0,-51"/><path id="path137" fill="none" stroke="#000" stroke-width="50" d="m 8000,5366 0,-51"/><path id="path139" fill="none" stroke="#000" stroke-width="50" d="m 8000,5264 0,-51"/><path id="path141" fill="none" stroke="#000" stroke-width="50" d="m 8000,5162 0,-51"/><path id="path143" fill="none" stroke="#000" stroke-width="50" d="m 8000,5060 0,-51"/><path id="path145" fill="none" stroke="#000" stroke-width="50" d="m 8000,4958 0,-51"/><path id="path147" fill="none" stroke="#000" stroke-width="50" d="m 8000,4856 0,-51"/><path id="path149" fill="none" stroke="#000" stroke-width="50" d="m 8000,4754 0,-51"/><path id="path151" fill="none" stroke="#000" stroke-width="50" d="m 8000,4652 0,-51"/><path id="path153" fill="none" stroke="#000" stroke-width="50" d="m 8000,4550 0,-51"/><path id="path155" fill="none" stroke="#000" stroke-width="50" d="m 8000,4448 0,-51"/><path id="path157" fill="none" stroke="#000" stroke-width="50" d="m 8000,4346 0,-51"/><path id="path159" fill="none" stroke="#000" stroke-width="50" d="m 8000,4244 0,-51"/><path id="path161" fill="none" stroke="#000" stroke-width="50" d="m 8000,4142 0,-51"/><path id="path163" fill="none" stroke="#000" stroke-width="50" d="m 8000,4040 0,-51"/><path id="path165" fill="none" stroke="#000" stroke-width="50" d="m 8000,3938 0,-51"/><path id="path167" fill="none" stroke="#000" stroke-width="50" d="m 8000,3836 0,-51"/><path id="path169" fill="none" stroke="#000" stroke-width="50" d="m 8000,3734 0,-51"/><path id="path171" fill="none" stroke="#000" stroke-width="50" d="m 8000,3632 0,-51"/><path id="path173" fill="none" stroke="#000" stroke-width="50" d="m 8000,3530 0,-51"/><path id="path175" fill="none" stroke="#000" stroke-width="50" d="m 8000,3428 0,-51"/><path id="path177" fill="none" stroke="#000" stroke-width="50" d="m 8000,3326 0,-51"/><path id="path179" fill="none" stroke="#000" stroke-width="50" d="m 8000,3224 0,-51"/><path id="path181" fill="none" stroke="#000" stroke-width="50" d="m 8000,3122 0,-51"/><path id="path183" fill="none" stroke="#000" stroke-width="50" d="m 8000,3020 0,-51"/><path id="path185" fill="none" stroke="#000" stroke-width="50" d="m 8000,2918 0,-51"/><path id="path187" fill="none" stroke="#000" stroke-width="50" d="m 8000,2816 0,-51"/><path id="path189" fill="none" stroke="#000" stroke-width="50" d="m 8000,2714 0,-51"/><path id="path191" fill="none" stroke="#000" stroke-width="50" d="m 8000,2612 0,-51"/><path id="path193" fill="none" stroke="#000" stroke-width="50" d="m 8000,2510 0,-51"/><path id="path195" fill="none" stroke="#000" stroke-width="50" d="m 8000,2408 0,-51"/><path id="path197" fill="none" stroke="#000" stroke-width="50" d="m 8000,2306 0,-51"/><path id="path199" fill="none" stroke="#000" stroke-width="50" d="m 8000,2204 0,-51"/><path id="path201" fill="none" stroke="#000" stroke-width="50" d="m 8000,2102 0,-51"/><path id="path203" fill="none" stroke="#000" stroke-width="50" d="m 8000,2000 0,-51"/><path id="path205" fill="none" stroke="#000" stroke-width="50" d="m 8000,1898 0,-51"/><path id="path207" fill="none" stroke="#000" stroke-width="50" d="m 8000,1796 0,-51"/><path id="path209" fill="none" stroke="#000" stroke-width="50" d="m 8000,1694 0,-51"/><path id="path211" fill="none" stroke="#000" stroke-width="50" d="m 8000,1592 0,-51"/><path id="path213" fill="none" stroke="#000" stroke-width="50" d="m 8000,1490 0,-51"/><path id="path215" fill="none" stroke="#000" stroke-width="50" d="m 8000,1388 0,-51"/></g></g><g id="g217" class="com.sun.star.drawing.LineShape"><g id="id8"><path id="path220" fill="none" stroke="#000" stroke-width="50" d="m 11300,6100 -51,0"/><path id="path222" fill="none" stroke="#000" stroke-width="50" d="m 11198,6100 -51,0"/><path id="path224" fill="none" stroke="#000" stroke-width="50" d="m 11096,6100 -51,0"/><path id="path226" fill="none" stroke="#000" stroke-width="50" d="m 10994,6100 -51,0"/><path id="path228" fill="none" stroke="#000" stroke-width="50" d="m 10892,6100 -51,0"/><path id="path230" fill="none" stroke="#000" stroke-width="50" d="m 10790,6100 -51,0"/><path id="path232" fill="none" stroke="#000" stroke-width="50" d="m 10688,6100 -51,0"/><path id="path234" fill="none" stroke="#000" stroke-width="50" d="m 10586,6100 -51,0"/><path id="path236" fill="none" stroke="#000" stroke-width="50" d="m 10484,6100 -51,0"/><path id="path238" fill="none" stroke="#000" stroke-width="50" d="m 10382,6100 -51,0"/><path id="path240" fill="none" stroke="#000" stroke-width="50" d="m 10280,6100 -51,0"/><path id="path242" fill="none" stroke="#000" stroke-width="50" d="m 10178,6100 -51,0"/><path id="path244" fill="none" stroke="#000" stroke-width="50" d="m 10076,6100 -51,0"/><path id="path246" fill="none" stroke="#000" stroke-width="50" d="m 9974,6100 -51,0"/><path id="path248" fill="none" stroke="#000" stroke-width="50" d="m 9872,6100 -51,0"/><path id="path250" fill="none" stroke="#000" stroke-width="50" d="m 9770,6100 -51,0"/><path id="path252" fill="none" stroke="#000" stroke-width="50" d="m 9668,6100 -51,0"/><path id="path254" fill="none" stroke="#000" stroke-width="50" d="m 9566,6100 -51,0"/><path id="path256" fill="none" stroke="#000" stroke-width="50" d="m 9464,6100 -51,0"/><path id="path258" fill="none" stroke="#000" stroke-width="50" d="m 9362,6100 -51,0"/><path id="path260" fill="none" stroke="#000" stroke-width="50" d="m 9260,6100 -51,0"/><path id="path262" fill="none" stroke="#000" stroke-width="50" d="m 9158,6100 -51,0"/><path id="path264" fill="none" stroke="#000" stroke-width="50" d="m 9056,6100 -51,0"/><path id="path266" fill="none" stroke="#000" stroke-width="50" d="m 8954,6100 -51,0"/><path id="path268" fill="none" stroke="#000" stroke-width="50" d="m 8852,6100 -51,0"/><path id="path270" fill="none" stroke="#000" stroke-width="50" d="m 8750,6100 -51,0"/><path id="path272" fill="none" stroke="#000" stroke-width="50" d="m 8648,6100 -51,0"/><path id="path274" fill="none" stroke="#000" stroke-width="50" d="m 8546,6100 -51,0"/><path id="path276" fill="none" stroke="#000" stroke-width="50" d="m 8444,6100 -51,0"/><path id="path278" fill="none" stroke="#000" stroke-width="50" d="m 8342,6100 -51,0"/><path id="path280" fill="none" stroke="#000" stroke-width="50" d="m 8240,6100 -51,0"/><path id="path282" fill="none" stroke="#000" stroke-width="50" d="m 8138,6100 -51,0"/><path id="path284" fill="none" stroke="#000" stroke-width="50" d="m 8036,6100 -51,0"/><path id="path286" fill="none" stroke="#000" stroke-width="50" d="m 7934,6100 -51,0"/><path id="path288" fill="none" stroke="#000" stroke-width="50" d="m 7832,6100 -51,0"/><path id="path290" fill="none" stroke="#000" stroke-width="50" d="m 7730,6100 -51,0"/><path id="path292" fill="none" stroke="#000" stroke-width="50" d="m 7628,6100 -51,0"/><path id="path294" fill="none" stroke="#000" stroke-width="50" d="m 7526,6100 -51,0"/><path id="path296" fill="none" stroke="#000" stroke-width="50" d="m 7424,6100 -51,0"/><path id="path298" fill="none" stroke="#000" stroke-width="50" d="m 7322,6100 -51,0"/><path id="path300" fill="none" stroke="#000" stroke-width="50" d="m 7220,6100 -51,0"/><path id="path302" fill="none" stroke="#000" stroke-width="50" d="m 7118,6100 -51,0"/><path id="path304" fill="none" stroke="#000" stroke-width="50" d="m 7016,6100 -51,0"/><path id="path306" fill="none" stroke="#000" stroke-width="50" d="m 6914,6100 -51,0"/><path id="path308" fill="none" stroke="#000" stroke-width="50" d="m 6812,6100 -51,0"/><path id="path310" fill="none" stroke="#000" stroke-width="50" d="m 6710,6100 -51,0"/><path id="path312" fill="none" stroke="#000" stroke-width="50" d="m 6608,6100 -51,0"/><path id="path314" fill="none" stroke="#000" stroke-width="50" d="m 6506,6100 -51,0"/><path id="path316" fill="none" stroke="#000" stroke-width="50" d="m 6404,6100 -51,0"/><path id="path318" fill="none" stroke="#000" stroke-width="50" d="m 6302,6100 -51,0"/><path id="path320" fill="none" stroke="#000" stroke-width="50" d="m 6200,6100 -51,0"/><path id="path322" fill="none" stroke="#000" stroke-width="50" d="m 6098,6100 -51,0"/><path id="path324" fill="none" stroke="#000" stroke-width="50" d="m 5996,6100 -51,0"/><path id="path326" fill="none" stroke="#000" stroke-width="50" d="m 5894,6100 -51,0"/><path id="path328" fill="none" stroke="#000" stroke-width="50" d="m 5792,6100 -51,0"/><path id="path330" fill="none" stroke="#000" stroke-width="50" d="m 5690,6100 -51,0"/><path id="path332" fill="none" stroke="#000" stroke-width="50" d="m 5588,6100 -51,0"/><path id="path334" fill="none" stroke="#000" stroke-width="50" d="m 5486,6100 -51,0"/><path id="path336" fill="none" stroke="#000" stroke-width="50" d="m 5384,6100 -51,0"/><path id="path338" fill="none" stroke="#000" stroke-width="50" d="m 5282,6100 -51,0"/><path id="path340" fill="none" stroke="#000" stroke-width="50" d="m 5180,6100 -51,0"/><path id="path342" fill="none" stroke="#000" stroke-width="50" d="m 5078,6100 -51,0"/><path id="path344" fill="none" stroke="#000" stroke-width="50" d="m 4976,6100 -51,0"/><path id="path346" fill="none" stroke="#000" stroke-width="50" d="m 4874,6100 -51,0"/><path id="path348" fill="none" stroke="#000" stroke-width="50" d="m 4772,6100 -51,0"/><path id="path350" fill="none" stroke="#000" stroke-width="50" d="m 4670,6100 -51,0"/><path id="path352" fill="none" stroke="#000" stroke-width="50" d="m 4568,6100 -51,0"/></g></g><g id="g354" class="com.sun.star.drawing.TextShape"><g id="id9"><text id="text357" class="TextShape"><tspan id="tspan359" class="TextParagraph" font-family="Arial, sans-serif" font-size="388" font-weight="400"><tspan id="tspan361" x="5391" y="6768" class="TextPosition"><tspan id="tspan363" fill="#000" stroke="none">Variables</tspan></tspan></tspan></text></g></g><g id="g365" class="com.sun.star.drawing.TextShape"><g id="id10"><text id="text368" class="TextShape"><tspan id="tspan370" class="TextParagraph" font-family="Arial, sans-serif" font-size="388" font-weight="400"><tspan id="tspan372" x="9291" y="6769" class="TextPosition"><tspan id="tspan374" fill="#000" stroke="none">Values</tspan></tspan></tspan></text></g></g><g id="g376" class="com.sun.star.drawing.LineShape"><g id="id11"><path id="path379" fill="none" stroke="#000" stroke-width="50" d="m 11300,4500 -51,0"/><path id="path381" fill="none" stroke="#000" stroke-width="50" d="m 11198,4500 -51,0"/><path id="path383" fill="none" stroke="#000" stroke-width="50" d="m 11096,4500 -51,0"/><path id="path385" fill="none" stroke="#000" stroke-width="50" d="m 10994,4500 -51,0"/><path id="path387" fill="none" stroke="#000" stroke-width="50" d="m 10892,4500 -51,0"/><path id="path389" fill="none" stroke="#000" stroke-width="50" d="m 10790,4500 -51,0"/><path id="path391" fill="none" stroke="#000" stroke-width="50" d="m 10688,4500 -51,0"/><path id="path393" fill="none" stroke="#000" stroke-width="50" d="m 10586,4500 -51,0"/><path id="path395" fill="none" stroke="#000" stroke-width="50" d="m 10484,4500 -51,0"/><path id="path397" fill="none" stroke="#000" stroke-width="50" d="m 10382,4500 -51,0"/><path id="path399" fill="none" stroke="#000" stroke-width="50" d="m 10280,4500 -51,0"/><path id="path401" fill="none" stroke="#000" stroke-width="50" d="m 10178,4500 -51,0"/><path id="path403" fill="none" stroke="#000" stroke-width="50" d="m 10076,4500 -51,0"/><path id="path405" fill="none" stroke="#000" stroke-width="50" d="m 9974,4500 -51,0"/><path id="path407" fill="none" stroke="#000" stroke-width="50" d="m 9872,4500 -51,0"/><path id="path409" fill="none" stroke="#000" stroke-width="50" d="m 9770,4500 -51,0"/><path id="path411" fill="none" stroke="#000" stroke-width="50" d="m 9668,4500 -51,0"/><path id="path413" fill="none" stroke="#000" stroke-width="50" d="m 9566,4500 -51,0"/><path id="path415" fill="none" stroke="#000" stroke-width="50" d="m 9464,4500 -51,0"/><path id="path417" fill="none" stroke="#000" stroke-width="50" d="m 9362,4500 -51,0"/><path id="path419" fill="none" stroke="#000" stroke-width="50" d="m 9260,4500 -51,0"/><path id="path421" fill="none" stroke="#000" stroke-width="50" d="m 9158,4500 -51,0"/><path id="path423" fill="none" stroke="#000" stroke-width="50" d="m 9056,4500 -51,0"/><path id="path425" fill="none" stroke="#000" stroke-width="50" d="m 8954,4500 -51,0"/><path id="path427" fill="none" stroke="#000" stroke-width="50" d="m 8852,4500 -51,0"/><path id="path429" fill="none" stroke="#000" stroke-width="50" d="m 8750,4500 -51,0"/><path id="path431" fill="none" stroke="#000" stroke-width="50" d="m 8648,4500 -51,0"/><path id="path433" fill="none" stroke="#000" stroke-width="50" d="m 8546,4500 -51,0"/><path id="path435" fill="none" stroke="#000" stroke-width="50" d="m 8444,4500 -51,0"/><path id="path437" fill="none" stroke="#000" stroke-width="50" d="m 8342,4500 -51,0"/><path id="path439" fill="none" stroke="#000" stroke-width="50" d="m 8240,4500 -51,0"/><path id="path441" fill="none" stroke="#000" stroke-width="50" d="m 8138,4500 -51,0"/><path id="path443" fill="none" stroke="#000" stroke-width="50" d="m 8036,4500 -51,0"/><path id="path445" fill="none" stroke="#000" stroke-width="50" d="m 7934,4500 -51,0"/><path id="path447" fill="none" stroke="#000" stroke-width="50" d="m 7832,4500 -51,0"/><path id="path449" fill="none" stroke="#000" stroke-width="50" d="m 7730,4500 -51,0"/><path id="path451" fill="none" stroke="#000" stroke-width="50" d="m 7628,4500 -51,0"/><path id="path453" fill="none" stroke="#000" stroke-width="50" d="m 7526,4500 -51,0"/><path id="path455" fill="none" stroke="#000" stroke-width="50" d="m 7424,4500 -51,0"/><path id="path457" fill="none" stroke="#000" stroke-width="50" d="m 7322,4500 -51,0"/><path id="path459" fill="none" stroke="#000" stroke-width="50" d="m 7220,4500 -51,0"/><path id="path461" fill="none" stroke="#000" stroke-width="50" d="m 7118,4500 -51,0"/><path id="path463" fill="none" stroke="#000" stroke-width="50" d="m 7016,4500 -51,0"/><path id="path465" fill="none" stroke="#000" stroke-width="50" d="m 6914,4500 -51,0"/><path id="path467" fill="none" stroke="#000" stroke-width="50" d="m 6812,4500 -51,0"/><path id="path469" fill="none" stroke="#000" stroke-width="50" d="m 6710,4500 -51,0"/><path id="path471" fill="none" stroke="#000" stroke-width="50" d="m 6608,4500 -51,0"/><path id="path473" fill="none" stroke="#000" stroke-width="50" d="m 6506,4500 -51,0"/><path id="path475" fill="none" stroke="#000" stroke-width="50" d="m 6404,4500 -51,0"/><path id="path477" fill="none" stroke="#000" stroke-width="50" d="m 6302,4500 -51,0"/><path id="path479" fill="none" stroke="#000" stroke-width="50" d="m 6200,4500 -51,0"/><path id="path481" fill="none" stroke="#000" stroke-width="50" d="m 6098,4500 -51,0"/><path id="path483" fill="none" stroke="#000" stroke-width="50" d="m 5996,4500 -51,0"/><path id="path485" fill="none" stroke="#000" stroke-width="50" d="m 5894,4500 -51,0"/><path id="path487" fill="none" stroke="#000" stroke-width="50" d="m 5792,4500 -51,0"/><path id="path489" fill="none" stroke="#000" stroke-width="50" d="m 5690,4500 -51,0"/><path id="path491" fill="none" stroke="#000" stroke-width="50" d="m 5588,4500 -51,0"/><path id="path493" fill="none" stroke="#000" stroke-width="50" d="m 5486,4500 -51,0"/><path id="path495" fill="none" stroke="#000" stroke-width="50" d="m 5384,4500 -51,0"/><path id="path497" fill="none" stroke="#000" stroke-width="50" d="m 5282,4500 -51,0"/><path id="path499" fill="none" stroke="#000" stroke-width="50" d="m 5180,4500 -51,0"/><path id="path501" fill="none" stroke="#000" stroke-width="50" d="m 5078,4500 -51,0"/><path id="path503" fill="none" stroke="#000" stroke-width="50" d="m 4976,4500 -51,0"/><path id="path505" fill="none" stroke="#000" stroke-width="50" d="m 4874,4500 -51,0"/><path id="path507" fill="none" stroke="#000" stroke-width="50" d="m 4772,4500 -51,0"/><path id="path509" fill="none" stroke="#000" stroke-width="50" d="m 4670,4500 -51,0"/><path id="path511" fill="none" stroke="#000" stroke-width="50" d="m 4568,4500 -51,0"/></g></g><g id="g513" class="com.sun.star.drawing.CustomShape"><g id="id12"><path id="path516" fill="none" stroke="#000" stroke-width="50" d="m 4159,2800 c -30,0 -61,58 -61,116 l 0,467 c 0,59 -30,117 -60,117 30,0 60,58 60,117 l 0,467 c 0,58 31,116 61,116"/><path id="path518" fill="none" stroke="#000" stroke-width="50" d="m 4038,2800 0,0 z"/><path id="path520" fill="none" stroke="#000" stroke-width="50" d="m 4160,4201 0,0 z"/></g></g><g id="g522" class="com.sun.star.drawing.TextShape"><g id="id13"><path id="path525" fill="silver" stroke="none" d="m 6229,3801 -683,0 0,-683 1366,0 0,683 -683,0 z"/><text id="text527" class="TextShape"><tspan id="tspan529" class="TextParagraph" font-family="Arial, sans-serif" font-size="388" font-weight="400"><tspan id="tspan531" x="5796" y="3594" class="TextPosition"><tspan id="tspan533" fill="#000" stroke="none">temp</tspan></tspan></tspan></text></g></g><g id="g535" class="com.sun.star.drawing.LineShape"><g id="id14"><path id="path538" fill="none" stroke="#000" d="M 7200,3500 8864,4831"/><path id="path540" fill="#000" stroke="none" d="m 9200,5100 -258,-398 -187,234 445,164 z"/></g></g></g></g></g></g></svg>